<svg width="984" height="129" viewBox="0 0 984 129" fill="none" xmlns="http://www.w3.org/2000/svg">
<g clip-path="url(#clip0_1_2)">
<path d="M195.467 128.408C162.271 128.408 137.16 107.424 137.16 64.769C137.16 21.7698 162.271 0.786102 195.467 0.786102C222.298 0.786102 245.346 16.4378 248.614 43.0974H232.79C229.522 25.0377 213.871 14.5459 195.467 14.5459C171.043 14.5459 153.156 30.8856 153.156 64.769C153.156 98.3085 171.043 114.648 195.467 114.648C213.871 114.648 229.522 104.156 232.79 85.9247H248.614C245.346 113.1 222.298 128.408 195.467 128.408ZM309.686 128.408C272.363 128.408 249.831 105.532 249.831 64.597C249.831 23.6617 272.363 0.786102 309.686 0.786102C346.838 0.786102 369.369 23.6617 369.369 64.597C369.369 105.532 346.838 128.408 309.686 128.408ZM309.686 114.648C337.206 114.648 353.546 96.7605 353.546 64.597C353.546 32.4336 337.206 14.5459 309.686 14.5459C281.995 14.5459 265.827 32.4336 265.827 64.597C265.827 96.7605 281.995 114.648 309.686 114.648ZM427.057 126H408.997L358.774 3.19406H376.146L417.597 107.08H419.317L460.596 3.19406H477.28L427.057 126ZM567.65 126H480.791V3.19406H566.79V16.9538H496.271V57.7171H559.05V71.4769H496.271V112.24H567.65V126ZM588.283 126H572.803V3.19406H620.102C654.158 3.19406 664.993 19.1898 664.993 37.9375C664.993 52.9012 659.834 64.425 643.15 69.7569V71.4769C657.598 75.4329 662.758 85.0647 666.369 100.888L672.389 126H656.566L650.89 101.92C647.966 89.3646 643.494 78.3568 621.134 78.3568H588.283V126ZM588.283 16.9538V64.597H620.274C641.774 64.597 649.17 53.2452 649.17 40.5174C649.17 27.4457 641.774 16.9538 620.274 16.9538H588.283ZM720.488 128.408C685.745 128.408 671.125 111.724 671.125 91.9446V89.5366H686.605V91.0846C686.605 104.328 696.064 114.992 720.144 114.992C743.708 114.992 753.683 105.532 753.683 93.1486C753.683 60.4691 674.565 84.7207 674.565 35.8735C674.565 16.6098 688.841 0.786102 720.144 0.786102C753.34 0.786102 766.239 17.4698 766.239 37.9375V39.6574H750.76V38.2815C750.76 24.3497 742.332 14.2019 720.144 14.2019C699.332 14.2019 690.389 23.6617 690.389 35.7015C690.389 69.9289 769.507 45.6774 769.507 93.3205C769.507 112.068 754.199 128.408 720.488 128.408ZM861.489 126H774.631V3.19406H860.629V16.9538H790.111V57.7171H852.89V71.4769H790.111V112.24H861.489V126ZM881.566 126H864.882L915.105 3.19406H933.165L983.388 126H966.017L953.805 95.2125H893.778L881.566 126ZM923.017 21.5978L898.938 81.4528H948.645L924.737 21.5978H923.017Z" fill="#F6F6F6"/>
<path d="M14.5988 0H64.5C47.8758 0 32.7202 6.2895 21.2833 16.6185C23.5239 15.2188 26.1715 14.4095 29.0083 14.4095H64.5C51.8951 14.4095 40.3773 19.0655 31.5735 26.7516C33.7933 25.3887 36.4052 24.6028 39.201 24.6028H64.4995C54.7827 24.6028 45.8767 28.0767 38.9568 33.8498C41.1378 32.5533 43.6854 31.8083 46.4071 31.8083H64.5C56.8564 31.8083 49.825 34.4315 44.2582 38.8267C46.3931 37.6037 48.867 36.9049 51.5037 36.9049H64.5C58.3769 36.9049 52.7189 38.8993 48.1412 42.2747C50.2112 41.1482 52.5846 40.5085 55.1072 40.5085H64.5C59.5086 40.5085 54.8734 42.0326 51.034 44.6413C53.0216 43.6278 55.2721 43.0565 57.6558 43.0565H64.5C60.3785 43.0565 56.5277 44.2193 53.2596 46.2355C55.1404 45.3521 57.2411 44.8585 59.4568 44.8585H64.4995C61.0655 44.8585 57.8372 45.7399 55.0284 47.2889C56.7802 46.5445 58.7082 46.1328 60.7316 46.1328H64.5C61.6259 46.1328 58.9057 46.7928 56.4831 47.9696C58.085 47.3661 59.8212 47.0354 61.6342 47.0354H64.5C62.1163 47.0354 59.8435 47.5129 57.7735 48.3776C58.1618 48.2521 58.5568 48.1422 58.9586 48.0489C60.0229 47.8027 61.1318 47.672 62.2708 47.672H64.5C62.53 47.672 60.6388 48.0105 58.8819 48.6327C60.1053 48.2998 61.3926 48.1225 62.7213 48.1225H64.5C55.4546 48.1225 48.1225 55.4551 48.1225 64.5V62.7213C48.1225 61.3926 48.3003 60.1053 48.6327 58.8819C48.0105 60.6388 47.672 62.53 47.672 64.5V62.2708C47.672 61.5336 47.727 60.8094 47.8322 60.1012C47.9514 59.3023 48.135 58.5247 48.3781 57.7735C47.5129 59.844 47.0354 62.1163 47.0354 64.5V61.6342C47.0354 59.8212 47.3661 58.085 47.9701 56.4831C46.7928 58.9057 46.1328 61.6259 46.1328 64.5V60.7316C46.1328 58.7071 46.545 56.7791 47.2894 55.0264C45.7399 57.8357 44.858 61.0649 44.858 64.5V59.4573C44.858 57.2426 45.351 55.143 46.2339 53.2627C44.2193 56.5303 43.057 60.3796 43.057 64.4995V57.6553C43.057 55.271 43.6283 53.0206 44.6424 51.0324C42.0331 54.8724 40.5085 59.5081 40.5085 64.5V55.1072C40.5085 52.5846 41.1482 50.2112 42.2747 48.1412C38.8998 52.7189 36.9049 58.3764 36.9049 64.5V51.5037C36.9049 48.867 37.6037 46.3936 38.8267 44.2582C34.4315 49.825 31.8083 56.8564 31.8083 64.5V46.4071C31.8083 43.6854 32.5533 41.1373 33.8504 38.9563C28.0762 45.8767 24.6022 54.7827 24.6022 64.5V39.2015C24.6022 36.4057 25.3882 33.7939 26.7506 31.574C19.0655 40.3783 14.4095 51.8956 14.4095 64.5V29.0083C14.4095 26.1715 15.2188 23.5239 16.6185 21.2833C6.2895 32.7202 0 47.8758 0 64.5V14.5988C0 6.53627 6.53627 0 14.5988 0Z" fill="#F6F6F6"/>
<path d="M64.5 129H14.5988C6.53627 129 0 122.464 0 114.401V64.5C0 81.1237 6.28898 96.2788 16.6175 107.716C15.2183 105.475 14.4095 102.828 14.4095 99.9922V64.5C14.4095 77.1049 19.0655 88.6222 26.7506 97.426C25.3882 95.2067 24.6022 92.5943 24.6022 89.799V64.5C24.6022 74.2178 28.0767 83.1248 33.8514 90.0452C32.5538 87.8637 31.8083 85.3152 31.8083 82.5924V64.5C31.8083 72.1431 34.4315 79.1734 38.8262 84.7407C37.6037 82.6059 36.9049 80.1325 36.9049 77.4968V64.5C36.9049 70.6236 38.8998 76.2817 42.2747 80.8593C41.1482 78.7893 40.5085 76.4159 40.5085 73.8928V64.5C40.5085 69.4929 42.0337 74.1297 44.6439 77.9696C43.6294 75.9815 43.057 73.7295 43.057 71.3442V64.4995C43.057 68.6189 44.2183 72.4666 46.2313 75.7332C45.3505 73.8539 44.858 71.7564 44.858 69.5432V64.5C44.858 67.9361 45.7404 71.1659 47.2905 73.9752C46.5455 72.2224 46.1328 70.2934 46.1328 68.2684V64.5C46.1328 67.3736 46.7928 70.0933 47.9696 72.5158C47.3656 70.9139 47.0354 69.1788 47.0354 67.3658V64.5C47.0354 66.8847 47.5134 69.1575 48.3786 71.2281C47.9198 69.8112 47.672 68.299 47.672 66.7292V64.5C47.672 66.47 48.0105 68.3612 48.6327 70.1176C48.4818 69.5629 48.3626 68.9947 48.2775 68.4156C48.1754 67.7178 48.1225 67.004 48.1225 66.2782V64.5C48.1225 73.5449 55.4546 80.877 64.5 80.877H62.7213C61.3921 80.877 60.1048 80.6996 58.8813 80.3668C60.6383 80.9889 62.5295 81.328 64.5 81.328H62.2708C60.7 81.328 59.1872 81.0797 57.7693 80.6203C59.8409 81.4861 62.1147 81.9646 64.5 81.9646H61.6342C59.8218 81.9646 58.0866 81.6344 56.4857 81.0309C58.9078 82.2072 61.6264 82.8672 64.5 82.8672H60.7316C58.7066 82.8672 56.7776 82.4545 55.0248 81.7095C57.8341 83.2596 61.0639 84.142 64.4995 84.142H59.4568C57.2436 84.142 55.1461 83.6495 53.2668 82.7682C56.5334 84.7812 60.3811 85.943 64.5 85.943H57.6558C55.27 85.943 53.018 85.3706 51.0293 84.3561C54.8698 86.9663 59.5071 88.4915 64.5 88.4915H55.1072C52.5846 88.4915 50.2107 87.8518 48.1407 86.7253C52.7183 90.1007 58.3764 92.0956 64.5 92.0956H51.5037C48.8675 92.0956 46.3946 91.3963 44.2603 90.1743C49.8271 94.569 56.8569 97.1912 64.5 97.1912H46.4071C43.6843 97.1912 41.1363 96.4462 38.9548 95.1486C45.8752 100.923 54.7817 104.398 64.4995 104.398H39.201C36.4052 104.398 33.7933 103.612 31.5735 102.249C40.3778 109.935 51.8951 114.591 64.5 114.591H29.0083C26.172 114.591 23.525 113.782 21.2849 112.382C32.7218 122.711 47.8763 129 64.5 129Z" fill="#F6F6F6"/>
<path d="M129 64.5V114.401C129 122.464 122.464 129 114.401 129H64.5C81.1232 129 96.2772 122.712 107.714 112.384C105.474 113.783 102.827 114.591 99.9922 114.591H64.5C77.1059 114.591 88.6248 109.934 97.4291 102.247C95.2087 103.611 92.5954 104.398 89.7985 104.398H64.4995C74.2168 104.398 83.1228 100.923 90.0432 95.1496C87.8622 96.4467 85.3146 97.1917 82.5924 97.1917L64.5 97.1912C72.1421 97.1917 79.1719 94.5695 84.7387 90.1754C82.6043 91.3973 80.132 92.0956 77.4963 92.0956H64.5C70.6241 92.0956 76.2822 90.1007 80.8598 86.7253C78.7898 87.8518 76.4159 88.4915 73.8928 88.4915H64.5C69.4929 88.4915 74.1297 86.9669 77.9696 84.3566C75.9815 85.3712 73.7295 85.943 71.3442 85.943H64.5C68.6204 85.943 72.4692 84.7807 75.7373 82.7666C73.8565 83.649 71.7574 84.142 69.5422 84.142H64.4995C67.9345 84.142 71.1638 83.2601 73.9726 81.7106C72.2203 82.4555 70.2923 82.8672 68.2684 82.8672H64.5C67.3726 82.8672 70.0917 82.2077 72.5132 81.0314C70.9124 81.6349 69.1777 81.9646 67.3658 81.9646H64.5C66.8858 81.9646 69.1606 81.4866 71.2322 80.6203C69.8138 81.0797 68.3005 81.328 66.7287 81.328H64.5C66.4705 81.328 68.3617 80.9894 70.1192 80.3668C68.8952 80.6996 67.6074 80.8775 66.2782 80.8775L64.5 80.877C73.5444 80.8775 80.877 73.5449 80.877 64.5V66.2787C80.877 67.6079 80.6996 68.8957 80.3668 70.1192C80.9889 68.3617 81.3275 66.4705 81.3275 64.5V66.7292C81.3275 68.3005 81.0797 69.8143 80.6198 71.2327C81.4861 69.1611 81.9646 66.8863 81.9646 64.5V67.3658C81.9646 69.1777 81.6349 70.9129 81.0314 72.5138C82.2077 70.0917 82.8672 67.3731 82.8672 64.5V68.2684C82.8672 70.2918 82.4555 72.2193 81.7111 73.9711C83.2601 71.1628 84.1409 67.9345 84.1409 64.5V69.5432C84.1409 71.7589 83.6479 73.8591 82.7645 75.7404C84.7801 72.4718 85.943 68.6215 85.943 64.4995V71.3442C85.943 73.7289 85.3717 75.9805 84.3576 77.9686C86.9669 74.1287 88.4915 69.4924 88.4915 64.5V73.8928C88.4915 76.4159 87.8513 78.7898 86.7248 80.8604C90.1002 76.2822 92.0951 70.6241 92.0951 64.5V77.4968C92.0951 80.1325 91.3968 82.6043 90.1748 84.7387C94.569 79.1724 97.1912 72.1421 97.1912 64.5V82.5929C97.1912 85.3146 96.4467 87.8622 95.1496 90.0437C100.923 83.1233 104.397 74.2173 104.397 64.5V89.799C104.397 92.5964 103.61 95.2098 102.246 97.4302C109.934 88.6258 114.591 77.107 114.591 64.5V99.9922C114.591 102.827 113.783 105.474 112.384 107.714C122.712 96.2772 129 81.1232 129 64.5Z" fill="#F6F6F6"/>
<path d="M129 64.5C129 47.8763 122.711 32.7218 112.383 21.2849C113.782 23.5255 114.591 26.1725 114.591 29.0083V64.5C114.591 51.8935 109.934 40.3747 102.246 31.5703C103.61 33.7907 104.397 36.4041 104.397 39.2015V64.5C104.397 54.7837 100.924 45.8783 95.1507 38.9584C96.4472 41.1394 97.1912 43.6864 97.1912 46.4071V64.5C97.1912 56.8569 94.5685 49.8266 90.1743 44.2603C91.3968 46.3946 92.0951 48.8675 92.0951 51.5037V64.5C92.0951 58.3764 90.1002 52.7183 86.7253 48.1407C87.8518 50.2112 88.4915 52.5846 88.4915 55.1072V64.5C88.4915 59.5086 86.9674 54.8734 84.3592 51.0345C85.3722 53.0216 85.943 55.2716 85.943 57.6553V64.4995C85.943 60.3765 84.7796 56.5251 82.7625 53.2559C83.6469 55.1383 84.1409 57.24 84.1409 59.4573V64.5C84.1409 61.067 83.2601 57.8393 81.7121 55.031C82.4555 56.7822 82.8672 58.7092 82.8672 60.7316V64.5C82.8672 61.6269 82.2072 58.9078 81.0309 56.4862C81.6344 58.0866 81.9646 59.8218 81.9646 61.6342V64.5C81.9646 62.1142 81.4861 59.8404 80.6203 57.7693C81.0797 59.1872 81.3275 60.7 81.3275 62.2708V64.5C81.3275 62.5295 80.9889 60.6383 80.3668 58.8808C80.6996 60.1048 80.877 61.3921 80.877 62.7213V64.5C80.877 55.4551 73.5444 48.1225 64.5 48.1225H66.2782C67.6069 48.1225 68.8947 48.2998 70.1181 48.6327C68.3612 48.0105 66.47 47.672 64.5 47.672H66.7287C68.299 47.672 69.8112 47.9198 71.2281 48.3786C69.1575 47.5134 66.8842 47.0354 64.5 47.0354H67.3658C69.1788 47.0354 70.9144 47.3656 72.5153 47.9696C70.0933 46.7928 67.3736 46.1328 64.5 46.1328H68.2684C70.2908 46.1328 72.2177 46.5445 73.969 47.2879C71.1607 45.7393 67.933 44.8585 64.4995 44.8585H69.5422C71.76 44.8585 73.8617 45.3531 75.7441 46.2375C72.4749 44.2204 68.6235 43.0565 64.5 43.0565H71.3442C73.7279 43.0565 75.9779 43.6278 77.965 44.6403C74.1261 42.0326 69.4908 40.5085 64.5 40.5085H73.8928C76.4154 40.5085 78.7893 41.1487 80.8593 42.2747C76.2817 38.8993 70.6236 36.9049 64.5 36.9049H77.4963C80.1325 36.9049 82.6059 37.6037 84.7407 38.8262C79.1734 34.431 72.1431 31.8083 64.5 31.8083H82.5924C85.3136 31.8083 87.8606 32.5528 90.0411 33.8488C83.1212 28.0762 74.2157 24.6028 64.4995 24.6028H89.7985C92.5954 24.6028 95.2087 25.3897 97.4296 26.7537C88.6248 19.0665 77.1059 14.4095 64.5 14.4095H99.9922C102.828 14.4095 105.475 15.2183 107.716 16.6175C96.2788 6.28898 81.1237 0 64.5 0H114.401C122.464 0 129 6.53627 129 14.5988V64.5Z" fill="#F6F6F6"/>
</g>
<defs>
<clipPath id="clip0_1_2">
<rect width="984" height="129" fill="white"/>
</clipPath>
</defs>
</svg>
