<svg width="24" height="24" viewBox="0 0 24 24" fill="none" xmlns="http://www.w3.org/2000/svg">
<path fill-rule="evenodd" clip-rule="evenodd" d="M8.25 8.25V7C8.25 4.92893 9.92893 3.25 12 3.25C14.0711 3.25 15.75 4.92893 15.75 7V8.25H17.3334C18.8522 8.25 20.0834 9.48122 20.0834 11V18C20.0834 19.5188 18.8522 20.75 17.3334 20.75H6.66675C5.14796 20.75 3.91675 19.5188 3.91675 18V11C3.91675 9.48122 5.14796 8.25 6.66675 8.25H8.25ZM9.75 7C9.75 5.75736 10.7574 4.75 12 4.75C13.2426 4.75 14.25 5.75736 14.25 7V8.25H9.75V7ZM13.5 13.5C13.5 14.0552 13.1984 14.54 12.75 14.7993V16C12.75 16.4142 12.4142 16.75 12 16.75C11.5858 16.75 11.25 16.4142 11.25 16V14.7993C10.8016 14.54 10.5 14.0552 10.5 13.5C10.5 12.6716 11.1716 12 12 12C12.8284 12 13.5 12.6716 13.5 13.5Z" fill="#F6F6F6"/>
</svg>
