<svg width="24" height="24" viewBox="0 0 24 24" fill="none" xmlns="http://www.w3.org/2000/svg">
<path d="M12.75 14.7993C13.1984 14.54 13.5 14.0552 13.5 13.5C13.5 12.6716 12.8284 12 12 12C11.1716 12 10.5 12.6716 10.5 13.5C10.5 14.0552 10.8016 14.54 11.25 14.7993V16C11.25 16.4142 11.5858 16.75 12 16.75C12.4142 16.75 12.75 16.4142 12.75 16V14.7993Z" fill="#F6F6F6"/>
<path fill-rule="evenodd" clip-rule="evenodd" d="M9.75 7C9.75 5.75736 10.7574 4.75 12 4.75C12.8319 4.75 13.5593 5.20106 13.9494 5.87554C14.1569 6.23409 14.6157 6.35661 14.9742 6.1492C15.3327 5.9418 15.4553 5.483 15.2479 5.12446C14.6006 4.00554 13.389 3.25 12 3.25C9.92893 3.25 8.25 4.92893 8.25 7V8.25H6.66675C5.14796 8.25 3.91675 9.48122 3.91675 11V18C3.91675 19.5188 5.14796 20.75 6.66675 20.75H17.3334C18.8522 20.75 20.0834 19.5188 20.0834 18V11C20.0834 9.48122 18.8522 8.25 17.3334 8.25H9.75V7ZM5.41675 11C5.41675 10.3096 5.97639 9.75 6.66675 9.75H17.3334C18.0238 9.75 18.5834 10.3096 18.5834 11V18C18.5834 18.6904 18.0238 19.25 17.3334 19.25H6.66675C5.97639 19.25 5.41675 18.6904 5.41675 18V11Z" fill="#F6F6F6"/>
</svg>
