<svg width="24" height="24" viewBox="0 0 24 24" fill="none" xmlns="http://www.w3.org/2000/svg">
<path d="M16.5304 11.697C16.2375 11.4041 15.7626 11.4041 15.4697 11.697C15.1768 11.9899 15.1768 12.4648 15.4697 12.7577L16.5304 11.697ZM19.2 15.4274L18.6697 15.9577C18.9626 16.2506 19.4375 16.2506 19.7304 15.9577L19.2 15.4274ZM22.9304 12.7577C23.2232 12.4648 23.2232 11.9899 22.9304 11.697C22.6375 11.4041 22.1626 11.4041 21.8697 11.697L22.9304 12.7577ZM8 3.25C7.58579 3.25 7.25 3.58579 7.25 4C7.25 4.41421 7.58579 4.75 8 4.75L8 3.25ZM18.45 12L18.45 15.6104L19.95 15.6104L19.95 12L18.45 12ZM15.4697 12.7577L18.6697 15.9577L19.7304 14.897L16.5304 11.697L15.4697 12.7577ZM19.7304 15.9577L22.9304 12.7577L21.8697 11.697L18.6697 14.897L19.7304 15.9577ZM11.2 3.25L8 3.25L8 4.75L11.2 4.75L11.2 3.25ZM19.95 12C19.95 7.16751 16.0325 3.25 11.2 3.25L11.2 4.75C15.2041 4.75 18.45 7.99594 18.45 12L19.95 12Z" fill="#F6F6F6"/>
<rect x="3" y="9" width="11" height="11" rx="2" stroke="#F6F6F6" stroke-width="1.5"/>
</svg>
