<svg width="24" height="24" viewBox="0 0 24 24" fill="none" xmlns="http://www.w3.org/2000/svg">
<path d="M12.0526 5.68421H5.78947C4.80117 5.68421 4 6.48539 4 7.47368V14.1842M18.3158 10.1579V3M18.3158 3L15.6316 5.68421M18.3158 3L21 5.68421M18.3158 15.9737V18.2105C18.3158 19.1988 17.5146 20 16.5263 20H5.78947C4.80117 20 4 19.1988 4 18.2105V14.1842M18.3158 15.9737V13.7368M18.3158 15.9737L15.5548 13.2127C14.856 12.5139 13.723 12.5139 13.0241 13.2127L12.0526 14.1842M12.0526 14.1842L9.29166 11.4232C8.59283 10.7244 7.4598 10.7244 6.76097 11.4232L4 14.1842M12.0526 14.1842L17.4211 19.5526" stroke="white" stroke-width="1.5" stroke-linecap="round" stroke-linejoin="round"/>
</svg>
