<svg width="487" height="487" viewBox="0 0 487 487" fill="none" xmlns="http://www.w3.org/2000/svg">
<path fill-rule="evenodd" clip-rule="evenodd" d="M376.825 54.5312C379.176 54.5312 381.492 54.6787 383.766 54.965C391.828 55.9802 399.348 58.7409 405.933 62.8566C399.861 57.3725 393.511 52.1906 386.907 47.3347C346.643 17.7311 296.919 0.242188 243.111 0.242188C189.303 0.242188 139.58 17.7311 99.3159 47.3347C92.7114 52.1905 86.3614 57.3723 80.2897 62.8563C86.8752 58.7407 94.3944 55.9802 102.457 54.965C104.73 54.6787 107.047 54.5312 109.397 54.5312H243.111C224.149 54.5312 205.841 57.3279 188.575 62.5312C171.011 67.8245 154.527 75.6082 139.532 85.472C132.35 90.1968 125.51 95.3988 119.056 101.033C125.963 96.7909 133.879 94.0319 142.36 93.1992C144.15 93.0235 145.964 92.9336 147.8 92.9336H243.111C226.137 92.9336 209.82 95.7472 194.601 100.934C185.727 103.958 177.226 107.788 169.186 112.338C161.281 116.812 153.821 121.981 146.89 127.763C154.203 123.417 162.609 120.718 171.597 120.178C172.705 120.112 173.822 120.078 174.947 120.078H243.111C227.7 120.078 212.95 122.909 199.353 128.078C196.726 129.077 194.143 130.162 191.606 131.332C182.732 135.423 174.427 140.539 166.843 146.527C174.711 142.019 183.799 139.399 193.49 139.285C193.709 139.283 193.928 139.281 194.148 139.281H243.112C231.327 139.281 220 141.242 209.439 144.855C208.865 145.052 208.293 145.253 207.724 145.459C206.147 146.03 204.589 146.638 203.049 147.281C195.35 150.499 188.121 154.616 181.493 159.501C188.231 155.839 195.82 153.543 203.887 152.987C205.155 152.9 206.434 152.855 207.724 152.855H243.111C237.29 152.855 231.597 153.406 226.083 154.457C223.109 155.024 220.188 155.736 217.325 156.587C214.043 157.562 210.838 158.719 207.724 160.045C207.076 160.321 206.433 160.604 205.793 160.894C201.089 163.03 196.599 165.556 192.367 168.433C195.306 166.934 198.397 165.691 201.612 164.734C203.961 164.035 206.375 163.489 208.844 163.107C211.609 162.679 214.441 162.457 217.325 162.457H243.111C236.567 162.457 230.205 163.235 224.112 164.704C221.81 165.259 219.546 165.912 217.325 166.66C216.292 167.007 215.269 167.375 214.255 167.763C210.972 169.019 207.792 170.483 204.731 172.139C204.702 172.154 204.673 172.17 204.644 172.185C204.469 172.28 204.295 172.376 204.121 172.472C204.102 172.482 204.084 172.492 204.066 172.502C202.955 173.117 201.86 173.757 200.782 174.421C201.925 173.885 203.09 173.387 204.274 172.929C204.301 172.918 204.328 172.908 204.355 172.897C204.555 172.82 204.756 172.745 204.957 172.67C206.738 172.008 208.562 171.436 210.424 170.959C212.672 170.383 214.976 169.946 217.325 169.657C218.449 169.519 219.582 169.414 220.726 169.345C221.846 169.277 222.975 169.242 224.112 169.242H243.111C241.253 169.242 239.411 169.311 237.587 169.445C235.811 169.576 234.053 169.77 232.314 170.024C231.433 170.153 230.557 170.297 229.686 170.457C229.428 170.504 229.171 170.553 228.914 170.603C227.294 170.918 225.693 171.285 224.112 171.704C219.636 172.889 215.327 174.484 211.226 176.445C211.093 176.509 210.961 176.572 210.828 176.637C210.784 176.658 210.74 176.68 210.696 176.701C209.582 177.245 208.483 177.816 207.4 178.414C208.534 177.931 209.688 177.486 210.859 177.079C210.911 177.061 210.964 177.043 211.016 177.025C211.143 176.981 211.269 176.938 211.396 176.896C212.564 176.504 213.749 176.15 214.95 175.835C214.96 175.833 214.97 175.83 214.981 175.827C215.174 175.777 215.368 175.727 215.562 175.679C215.913 175.591 216.265 175.507 216.618 175.427C219.058 174.869 221.56 174.474 224.112 174.254C224.371 174.231 224.63 174.211 224.89 174.192C226.037 174.109 227.194 174.061 228.36 174.05C228.544 174.048 228.729 174.047 228.914 174.047H243.111C240.851 174.047 238.616 174.155 236.411 174.367C235.843 174.422 235.277 174.483 234.713 174.551C233.909 174.649 233.11 174.76 232.314 174.884C231.171 175.063 230.038 175.27 228.914 175.505C227.292 175.843 225.691 176.238 224.112 176.688C223.45 176.877 222.791 177.075 222.137 177.283C221.569 177.463 221.004 177.651 220.443 177.845C220.306 177.893 220.169 177.941 220.033 177.989C220.007 177.998 219.981 178.007 219.955 178.016C218.864 178.404 217.785 178.818 216.72 179.258C216.633 179.294 216.546 179.33 216.459 179.366C216.4 179.391 216.342 179.415 216.283 179.44C215.149 179.917 214.03 180.424 212.927 180.96C214.07 180.529 215.231 180.135 216.409 179.78C216.475 179.76 216.541 179.741 216.607 179.721C216.687 179.697 216.767 179.674 216.847 179.65C217.949 179.328 219.065 179.039 220.195 178.785C220.232 178.777 220.269 178.768 220.306 178.76C220.427 178.733 220.548 178.707 220.67 178.68C223.351 178.103 226.104 177.72 228.914 177.549C230.039 177.48 231.173 177.445 232.314 177.445H243.111C240.849 177.445 238.614 177.559 236.411 177.782C235.843 177.84 235.277 177.905 234.713 177.976C233.909 178.079 233.109 178.196 232.314 178.327C231.171 178.516 230.037 178.734 228.914 178.981C226.328 179.55 223.798 180.271 221.336 181.134C221.28 181.154 221.223 181.174 221.166 181.194C221.1 181.217 221.035 181.241 220.969 181.264C219.889 181.65 218.822 182.063 217.769 182.503C218.851 182.153 219.948 181.836 221.059 181.552C221.13 181.534 221.202 181.515 221.274 181.497C221.324 181.485 221.374 181.472 221.425 181.46C223.861 180.855 226.362 180.413 228.914 180.146C230.038 180.028 231.172 179.944 232.314 179.895C233.11 179.861 233.909 179.844 234.713 179.844H243.111C240.848 179.844 238.613 179.962 236.411 180.194C235.843 180.253 235.277 180.32 234.713 180.395C233.909 180.502 233.109 180.623 232.314 180.759C231.17 180.956 230.036 181.183 228.914 181.439C228.003 181.648 227.098 181.876 226.202 182.124C224.769 182.519 223.357 182.964 221.966 183.456C224.225 182.842 226.542 182.369 228.906 182.047C228.909 182.046 228.911 182.046 228.914 182.046C230.037 181.893 231.171 181.774 232.314 181.689C233.109 181.631 233.909 181.589 234.713 181.565C235.277 181.548 235.843 181.539 236.411 181.539H249.813C250.38 181.539 250.946 181.548 251.509 181.565C252.314 181.589 253.114 181.631 253.909 181.689C255.053 181.773 256.186 181.893 257.309 182.046C257.312 182.046 257.315 182.046 257.318 182.047C259.68 182.369 261.994 182.841 264.251 183.454C262.862 182.963 261.451 182.519 260.02 182.124C259.124 181.876 258.22 181.648 257.309 181.44C256.187 181.183 255.053 180.956 253.909 180.76C253.114 180.623 252.314 180.502 251.509 180.395C250.946 180.321 250.381 180.253 249.813 180.194C247.611 179.962 245.374 179.844 243.111 179.844H251.509C252.314 179.844 253.114 179.861 253.909 179.895C255.052 179.944 256.185 180.028 257.309 180.146C259.859 180.413 262.358 180.855 264.792 181.458C264.842 181.471 264.893 181.483 264.943 181.496C265.015 181.514 265.086 181.532 265.158 181.551C266.273 181.835 267.374 182.154 268.46 182.505C267.403 182.064 266.332 181.649 265.248 181.262C265.182 181.238 265.116 181.215 265.05 181.191C264.994 181.171 264.937 181.152 264.881 181.132C262.42 180.269 259.893 179.549 257.309 178.981C256.186 178.734 255.053 178.516 253.909 178.327C253.114 178.196 252.314 178.079 251.509 177.976C250.946 177.904 250.381 177.84 249.813 177.782C247.61 177.559 245.373 177.445 243.111 177.445H253.909C255.051 177.445 256.185 177.48 257.309 177.549C260.117 177.72 262.868 178.102 265.546 178.679C265.668 178.705 265.789 178.732 265.911 178.759C265.948 178.767 265.985 178.775 266.021 178.783C267.156 179.038 268.277 179.328 269.384 179.652C269.463 179.675 269.543 179.699 269.623 179.723C269.689 179.742 269.755 179.762 269.821 179.782C270.995 180.136 272.153 180.529 273.292 180.958C272.193 180.424 271.077 179.919 269.946 179.443C269.888 179.418 269.829 179.393 269.771 179.369C269.684 179.333 269.597 179.297 269.51 179.261C268.44 178.819 267.357 178.403 266.261 178.014C266.235 178.005 266.21 177.996 266.184 177.987C266.047 177.938 265.91 177.89 265.773 177.843C265.214 177.649 264.652 177.462 264.086 177.283C263.432 177.075 262.773 176.876 262.11 176.688C260.532 176.238 258.931 175.843 257.309 175.505C256.185 175.27 255.052 175.063 253.909 174.884C253.114 174.76 252.314 174.649 251.509 174.551C250.946 174.483 250.38 174.422 249.813 174.367C247.608 174.155 245.372 174.047 243.111 174.047H257.309C257.494 174.047 257.68 174.048 257.865 174.05C259.029 174.061 260.186 174.109 261.332 174.192C261.592 174.211 261.851 174.231 262.11 174.254C264.662 174.474 267.164 174.869 269.604 175.426C269.96 175.508 270.315 175.592 270.669 175.681C270.863 175.729 271.056 175.779 271.25 175.829C271.26 175.832 271.27 175.834 271.28 175.837C272.478 176.151 273.659 176.503 274.823 176.894C274.95 176.937 275.076 176.98 275.202 177.023C275.255 177.041 275.307 177.059 275.36 177.078C276.532 177.485 277.687 177.93 278.822 178.413C277.738 177.815 276.638 177.244 275.523 176.699C275.479 176.678 275.435 176.656 275.391 176.635C275.258 176.571 275.126 176.507 274.993 176.443C270.893 174.483 266.585 172.889 262.11 171.704C260.53 171.285 258.929 170.918 257.309 170.603C257.052 170.553 256.795 170.504 256.537 170.457C255.666 170.297 254.79 170.153 253.909 170.024C252.171 169.77 250.412 169.576 248.636 169.445C246.812 169.311 244.97 169.242 243.111 169.242H262.11C263.248 169.242 264.377 169.277 265.497 169.345C266.64 169.414 267.774 169.519 268.897 169.657C271.247 169.946 273.551 170.383 275.799 170.959C277.661 171.436 279.485 172.008 281.265 172.67C281.466 172.744 281.667 172.82 281.867 172.897C281.894 172.908 281.921 172.918 281.948 172.928C283.132 173.387 284.297 173.885 285.44 174.421C284.362 173.756 283.267 173.116 282.156 172.502C282.138 172.492 282.12 172.482 282.101 172.472C281.927 172.376 281.753 172.28 281.578 172.185C281.549 172.17 281.52 172.154 281.491 172.138C278.43 170.483 275.25 169.019 271.967 167.763C270.954 167.375 269.93 167.007 268.897 166.66C266.677 165.912 264.413 165.259 262.11 164.704C256.017 163.235 249.655 162.457 243.111 162.457H268.897C271.782 162.457 274.614 162.679 277.378 163.107C279.847 163.489 282.262 164.035 284.611 164.734C287.824 165.691 290.914 166.933 293.852 168.431C289.62 165.555 285.132 163.029 280.428 160.894C279.789 160.604 279.145 160.321 278.498 160.045C275.384 158.719 272.18 157.562 268.897 156.587C266.035 155.737 263.113 155.024 260.139 154.457C254.624 153.406 248.932 152.855 243.111 152.855H278.498C279.788 152.855 281.067 152.9 282.334 152.987C290.405 153.543 297.997 155.841 304.738 159.506C298.108 154.619 290.876 150.5 283.175 147.281C281.634 146.637 280.075 146.029 278.498 145.459C277.929 145.253 277.358 145.052 276.785 144.855C266.224 141.242 254.897 139.281 243.112 139.281H292.076C292.295 139.281 292.514 139.283 292.733 139.285C302.422 139.399 311.509 142.017 319.376 146.524C311.793 140.537 303.489 135.422 294.616 131.332C292.079 130.162 289.496 129.077 286.87 128.078C273.273 122.909 258.522 120.078 243.111 120.078H311.275C312.4 120.078 313.517 120.112 314.625 120.178C323.613 120.718 332.02 123.417 339.333 127.763C332.401 121.981 324.942 116.812 317.036 112.338C308.997 107.788 300.496 103.958 291.622 100.934C276.403 95.7472 260.086 92.9336 243.111 92.9336H338.423C340.258 92.9336 342.073 93.0235 343.862 93.1992C352.344 94.0319 360.259 96.7909 367.166 101.033C360.713 95.3988 353.872 90.1968 346.69 85.472C331.696 75.6082 315.211 67.8245 297.648 62.5312C280.382 57.3279 262.073 54.5312 243.111 54.5312H376.825ZM307.055 84.9336C313.254 84.9336 315.054 77.2997 309.285 75.0286C288.794 66.9613 266.473 62.5312 243.111 62.5312C219.75 62.5312 197.429 66.9613 176.937 75.0286C171.169 77.2997 172.969 84.9336 179.168 84.9336H307.055ZM268.78 112.078C275.323 112.078 276.534 104.723 270.109 103.49C261.369 101.812 252.343 100.934 243.111 100.934C233.879 100.934 224.854 101.812 216.114 103.49C209.688 104.723 210.899 112.078 217.442 112.078H268.78ZM243.111 128.078C246.924 128.078 246.924 131.281 243.111 131.281C239.299 131.281 239.299 128.078 243.111 128.078ZM131.759 36.2449C126.512 39.0737 128.635 46.5312 134.597 46.5312H351.626C357.587 46.5312 359.711 39.0737 354.464 36.2449C321.324 18.3788 283.405 8.24219 243.111 8.24219C202.817 8.24219 164.899 18.3788 131.759 36.2449ZM261.309 312.298C260.146 312.382 258.973 312.429 257.791 312.44C257.63 312.441 257.47 312.442 257.309 312.442H243.112C245.373 312.442 247.608 312.333 249.813 312.121C250.38 312.067 250.946 312.005 251.509 311.937C252.314 311.84 253.114 311.729 253.91 311.604C255.052 311.425 256.185 311.218 257.309 310.984C258.931 310.646 260.532 310.251 262.11 309.801C262.781 309.61 263.446 309.409 264.108 309.199C264.686 309.015 265.26 308.824 265.831 308.626C265.968 308.578 266.104 308.53 266.241 308.482C266.267 308.473 266.293 308.463 266.318 308.454C267.401 308.069 268.472 307.657 269.529 307.22C269.616 307.184 269.703 307.148 269.789 307.112C269.848 307.087 269.906 307.063 269.965 307.038C271.098 306.56 272.217 306.053 273.319 305.518C272.176 305.949 271.016 306.343 269.839 306.698C269.773 306.718 269.707 306.738 269.641 306.758C269.561 306.781 269.482 306.805 269.402 306.828C268.308 307.149 267.2 307.436 266.079 307.689C266.042 307.698 266.006 307.706 265.969 307.714C265.848 307.741 265.726 307.768 265.604 307.794C262.908 308.378 260.137 308.765 257.309 308.937C256.185 309.006 255.051 309.04 253.91 309.04H243.112C245.374 309.04 247.61 308.926 249.813 308.703C250.381 308.646 250.946 308.581 251.509 308.51C252.314 308.407 253.114 308.29 253.91 308.159C255.053 307.97 256.186 307.752 257.309 307.505C259.912 306.932 262.457 306.206 264.935 305.335C264.991 305.315 265.048 305.295 265.104 305.275C265.17 305.252 265.236 305.228 265.302 305.205C266.373 304.821 267.432 304.41 268.477 303.973C267.403 304.321 266.314 304.637 265.212 304.92C265.141 304.938 265.069 304.956 264.997 304.974C264.947 304.987 264.897 305 264.847 305.012C262.395 305.623 259.878 306.069 257.309 306.338C256.185 306.456 255.052 306.54 253.91 306.589C253.114 306.623 252.314 306.64 251.509 306.64H243.112C245.375 306.64 247.611 306.522 249.813 306.29C250.381 306.231 250.946 306.164 251.509 306.089C252.314 305.982 253.114 305.861 253.91 305.724C255.053 305.528 256.187 305.301 257.309 305.044C258.213 304.838 259.11 304.611 260 304.366C261.455 303.965 262.89 303.513 264.302 303.012C262.009 303.637 259.656 304.117 257.254 304.442C256.149 304.591 255.034 304.708 253.91 304.791C253.114 304.849 252.314 304.891 251.509 304.915C250.946 304.932 250.38 304.941 249.813 304.941H236.411C235.843 304.941 235.277 304.932 234.713 304.915C233.909 304.891 233.109 304.849 232.314 304.791C231.19 304.708 230.075 304.591 228.97 304.442C226.565 304.116 224.21 303.636 221.915 303.01C223.329 303.512 224.765 303.964 226.223 304.366C227.112 304.611 228.009 304.838 228.914 305.045C230.036 305.301 231.17 305.528 232.314 305.725C233.109 305.861 233.909 305.983 234.713 306.089C235.277 306.164 235.843 306.231 236.411 306.291C238.613 306.522 240.849 306.64 243.112 306.64H234.713C233.909 306.64 233.11 306.623 232.314 306.589C231.172 306.54 230.038 306.456 228.914 306.338C226.342 306.069 223.824 305.622 221.37 305.011C221.32 304.998 221.269 304.986 221.219 304.973C221.147 304.955 221.076 304.937 221.004 304.918C219.907 304.637 218.822 304.322 217.753 303.976C218.794 304.411 219.848 304.82 220.915 305.202C220.981 305.226 221.047 305.249 221.113 305.273C221.169 305.293 221.226 305.313 221.282 305.333C223.762 306.204 226.309 306.932 228.914 307.505C230.037 307.752 231.171 307.97 232.314 308.159C233.109 308.29 233.909 308.407 234.713 308.509C235.277 308.581 235.843 308.646 236.411 308.703C238.614 308.926 240.85 309.04 243.112 309.04H232.314C231.173 309.04 230.039 309.006 228.914 308.937C226.083 308.764 223.311 308.378 220.612 307.793C220.49 307.766 220.369 307.74 220.247 307.712C220.211 307.704 220.174 307.696 220.137 307.688C219.021 307.435 217.918 307.149 216.828 306.83C216.748 306.807 216.668 306.783 216.589 306.759C216.523 306.74 216.457 306.72 216.391 306.7C215.21 306.343 214.046 305.948 212.901 305.516C214.006 306.053 215.128 306.562 216.265 307.041C216.323 307.066 216.382 307.09 216.44 307.115C216.527 307.151 216.614 307.187 216.701 307.223C217.754 307.658 218.82 308.068 219.898 308.452C219.924 308.461 219.95 308.47 219.975 308.479C220.112 308.528 220.249 308.576 220.385 308.623C220.959 308.823 221.535 309.014 222.115 309.199C222.776 309.409 223.442 309.61 224.112 309.801C225.691 310.251 227.292 310.646 228.914 310.984C230.038 311.218 231.171 311.425 232.314 311.604C233.11 311.729 233.909 311.84 234.713 311.937C235.277 312.005 235.843 312.067 236.411 312.121C238.616 312.333 240.852 312.442 243.112 312.442H228.914C228.754 312.442 228.593 312.441 228.433 312.44C227.251 312.429 226.077 312.382 224.913 312.298C224.646 312.279 224.379 312.258 224.112 312.235C221.565 312.015 219.068 311.621 216.632 311.065C216.267 310.982 215.903 310.895 215.541 310.805C215.347 310.756 215.153 310.707 214.96 310.656C214.95 310.653 214.939 310.651 214.929 310.648C213.725 310.332 212.537 309.977 211.366 309.583C211.239 309.54 211.113 309.497 210.987 309.454C210.934 309.436 210.882 309.418 210.83 309.399C209.685 309.001 208.557 308.566 207.448 308.095C208.507 308.679 209.581 309.237 210.67 309.769C210.714 309.79 210.758 309.812 210.802 309.833C210.934 309.897 211.067 309.961 211.199 310.025C215.308 311.992 219.627 313.59 224.112 314.779C225.693 315.197 227.294 315.565 228.914 315.88C229.178 315.931 229.442 315.981 229.707 316.029C230.571 316.187 231.44 316.331 232.314 316.458C234.067 316.715 235.84 316.909 237.63 317.04C239.44 317.173 241.268 317.24 243.111 317.24H224.112C222.967 317.24 221.829 317.205 220.701 317.136C219.566 317.067 218.44 316.963 217.325 316.826C214.988 316.538 212.696 316.104 210.459 315.532C208.604 315.059 206.787 314.491 205.013 313.834C204.812 313.759 204.611 313.683 204.411 313.607C204.384 313.596 204.357 313.586 204.329 313.575C203.117 313.108 201.926 312.599 200.757 312.049C201.859 312.73 202.98 313.384 204.117 314.012C204.135 314.022 204.153 314.032 204.171 314.042C204.329 314.129 204.486 314.215 204.644 314.301C204.691 314.326 204.737 314.351 204.783 314.376C207.833 316.023 211.001 317.479 214.27 318.729C215.279 319.115 216.297 319.481 217.325 319.827C219.546 320.574 221.81 321.228 224.112 321.783C230.205 323.251 236.567 324.029 243.111 324.029H217.325C214.455 324.029 211.636 323.809 208.884 323.386C206.401 323.003 203.973 322.455 201.612 321.752C198.399 320.796 195.31 319.554 192.373 318.057C196.604 320.931 201.091 323.457 205.793 325.591C206.433 325.881 207.076 326.164 207.724 326.44C210.838 327.766 214.043 328.923 217.325 329.898C220.189 330.749 223.113 331.462 226.088 332.029C231.601 333.08 237.292 333.63 243.111 333.63H207.724C206.434 333.63 205.155 333.585 203.887 333.498C195.811 332.942 188.214 330.642 181.471 326.972C188.105 331.864 195.342 335.987 203.049 339.208C204.589 339.852 206.147 340.46 207.724 341.03C208.289 341.235 208.857 341.435 209.427 341.63C219.991 345.246 231.322 347.208 243.112 347.208H194.148C193.932 347.208 193.717 347.207 193.501 347.205C183.816 347.093 174.733 344.478 166.868 339.977C174.448 345.96 182.749 351.071 191.619 355.158C194.152 356.326 196.731 357.409 199.353 358.406C212.95 363.576 227.7 366.406 243.111 366.406H174.947C173.819 366.406 172.698 366.372 171.586 366.305C162.592 365.763 154.181 363.059 146.865 358.707C153.8 364.493 161.264 369.667 169.174 374.145C177.217 378.698 185.722 382.531 194.601 385.557C209.82 390.743 226.137 393.557 243.111 393.557H147.8C145.964 393.557 144.15 393.467 142.36 393.291C133.879 392.458 125.963 389.699 119.056 385.457C125.51 391.091 132.35 396.293 139.533 401.018C154.527 410.882 171.011 418.666 188.575 423.959C205.841 429.162 224.149 431.959 243.111 431.959H109.397C107.05 431.959 104.737 431.812 102.466 431.526C94.4086 430.513 86.8933 427.757 80.3103 423.647C86.3788 429.127 92.7253 434.305 99.3259 439.157C139.588 468.756 189.308 486.242 243.111 486.242C296.915 486.242 346.634 468.756 386.897 439.157C393.498 434.304 399.844 429.126 405.913 423.646C399.33 427.757 391.814 430.513 383.756 431.526C381.486 431.812 379.173 431.959 376.825 431.959H243.111C262.073 431.959 280.382 429.162 297.648 423.959C315.211 418.666 331.696 410.882 346.69 401.018C353.872 396.293 360.713 391.092 367.166 385.457C360.259 389.699 352.343 392.458 343.862 393.291C342.073 393.467 340.258 393.557 338.423 393.557H243.111C260.086 393.557 276.403 390.743 291.622 385.557C300.5 382.531 309.005 378.698 317.049 374.145C324.959 369.667 332.423 364.493 339.357 358.707C332.042 363.059 323.631 365.763 314.636 366.305C313.525 366.372 312.404 366.406 311.275 366.406H243.111C258.522 366.406 273.273 363.576 286.87 358.406C289.492 357.409 292.071 356.326 294.603 355.159C303.472 351.072 311.771 345.961 319.351 339.98C311.487 344.479 302.405 347.093 292.721 347.205C292.506 347.207 292.291 347.208 292.076 347.208H243.112C254.902 347.208 266.233 345.246 276.797 341.63C277.367 341.435 277.933 341.235 278.498 341.031C280.075 340.46 281.634 339.852 283.175 339.208C290.885 335.986 298.124 331.861 304.76 326.966C298.014 330.639 290.414 332.941 282.334 333.498C281.067 333.585 279.788 333.63 278.498 333.63H243.111C248.93 333.63 254.62 333.08 260.133 332.029C263.109 331.462 266.033 330.749 268.897 329.898C272.18 328.923 275.384 327.766 278.498 326.44C279.145 326.164 279.789 325.881 280.428 325.591C285.13 323.457 289.616 320.933 293.845 318.059C290.91 319.555 287.822 320.796 284.611 321.752C282.249 322.455 279.821 323.003 277.338 323.386C274.587 323.809 271.768 324.029 268.897 324.029H243.111C249.655 324.029 256.017 323.251 262.11 321.783C264.413 321.228 266.677 320.574 268.897 319.827C269.925 319.481 270.943 319.115 271.952 318.729C275.221 317.479 278.389 316.023 281.439 314.376C281.485 314.351 281.532 314.326 281.578 314.301C281.736 314.215 281.894 314.129 282.051 314.042C282.069 314.032 282.087 314.022 282.105 314.012C283.242 313.384 284.363 312.73 285.466 312.05C284.297 312.599 283.105 313.108 281.893 313.575C281.865 313.586 281.838 313.596 281.811 313.607C281.611 313.684 281.41 313.759 281.209 313.834C279.435 314.491 277.618 315.059 275.764 315.532C273.527 316.104 271.235 316.538 268.897 316.826C267.782 316.963 266.657 317.067 265.522 317.136C264.394 317.205 263.256 317.24 262.11 317.24H243.111C244.955 317.24 246.783 317.173 248.593 317.04C250.384 316.909 252.157 316.714 253.91 316.458C254.783 316.33 255.652 316.187 256.516 316.029C256.781 315.981 257.045 315.931 257.309 315.88C258.929 315.565 260.53 315.197 262.11 314.779C266.595 313.591 270.912 311.993 275.019 310.027C275.152 309.963 275.285 309.899 275.417 309.835C275.461 309.814 275.505 309.792 275.549 309.771C276.639 309.238 277.714 308.679 278.774 308.096C277.664 308.567 276.535 309.002 275.389 309.401C275.337 309.419 275.285 309.437 275.232 309.455C275.106 309.499 274.979 309.542 274.853 309.584C273.686 309.977 272.501 310.331 271.301 310.646C271.291 310.649 271.281 310.651 271.271 310.654C271.077 310.705 270.884 310.754 270.69 310.803C270.325 310.894 269.958 310.981 269.59 311.065C267.155 311.621 264.657 312.015 262.11 312.235C261.844 312.258 261.576 312.279 261.309 312.298ZM243.111 358.406C246.918 358.406 246.918 355.208 243.111 355.208C239.305 355.208 239.305 358.406 243.111 358.406ZM270.132 382.996C276.556 381.762 275.345 374.406 268.802 374.406H217.42C210.878 374.406 209.666 381.762 216.091 382.996C224.838 384.677 233.871 385.557 243.111 385.557C252.351 385.557 261.384 384.677 270.132 382.996ZM309.285 411.462C315.054 409.191 313.254 401.557 307.054 401.557H179.168C172.969 401.557 171.169 409.191 176.938 411.462C197.429 419.529 219.75 423.959 243.111 423.959C266.472 423.959 288.794 419.529 309.285 411.462ZM354.453 450.245C359.701 447.417 357.577 439.959 351.616 439.959H134.607C128.646 439.959 126.522 447.417 131.769 450.245C164.907 468.108 202.822 478.242 243.111 478.242C283.401 478.242 321.316 468.108 354.453 450.245ZM181.34 264.971C180.73 262.522 180.284 260.008 180.015 257.442C179.897 256.318 179.813 255.184 179.764 254.04C179.73 253.245 179.713 252.445 179.713 251.64V243.244C179.713 245.506 179.831 247.74 180.063 249.941C180.122 250.51 180.19 251.076 180.264 251.64C180.371 252.445 180.492 253.245 180.629 254.04C180.825 255.185 181.052 256.319 181.309 257.442C181.517 258.349 181.744 259.249 181.99 260.141C182.39 261.591 182.84 263.021 183.339 264.427C182.717 262.144 182.239 259.801 181.914 257.41C181.763 256.297 181.645 255.174 181.562 254.04C181.503 253.245 181.461 252.445 181.437 251.64C181.42 251.076 181.411 250.509 181.411 249.941V236.539C181.411 235.972 181.42 235.407 181.437 234.844C181.461 234.04 181.503 233.24 181.561 232.445C181.645 231.31 181.763 230.185 181.914 229.07C182.238 226.685 182.715 224.349 183.334 222.071C182.837 223.473 182.389 224.897 181.99 226.342C181.744 227.236 181.516 228.137 181.308 229.047C181.052 230.169 180.825 231.302 180.629 232.445C180.492 233.24 180.371 234.039 180.264 234.844C180.19 235.407 180.123 235.972 180.063 236.539C179.832 238.742 179.713 240.978 179.713 243.242V234.844C179.713 234.04 179.73 233.241 179.764 232.445C179.813 231.303 179.897 230.17 180.015 229.047C180.283 226.484 180.728 223.974 181.336 221.528C181.348 221.478 181.361 221.427 181.374 221.377C181.392 221.305 181.41 221.233 181.428 221.162C181.71 220.061 182.025 218.973 182.372 217.9C181.936 218.944 181.526 220.002 181.143 221.073C181.119 221.139 181.096 221.204 181.073 221.27C181.053 221.327 181.033 221.383 181.013 221.44C180.145 223.911 179.421 226.45 178.85 229.047C178.603 230.169 178.385 231.302 178.196 232.445C178.065 233.24 177.948 234.04 177.846 234.844C177.774 235.407 177.709 235.972 177.652 236.539C177.429 238.743 177.314 240.979 177.314 243.242V232.445C177.314 231.304 177.349 230.171 177.418 229.047C177.59 226.226 177.974 223.462 178.556 220.772C178.582 220.65 178.609 220.529 178.636 220.407C178.644 220.37 178.652 220.334 178.661 220.297C178.913 219.177 179.2 218.07 179.519 216.977C179.543 216.898 179.566 216.818 179.59 216.738C179.61 216.672 179.629 216.606 179.649 216.54C180.006 215.359 180.4 214.195 180.832 213.049C180.295 214.154 179.787 215.276 179.308 216.414C179.283 216.472 179.259 216.531 179.234 216.589C179.198 216.676 179.162 216.763 179.126 216.85C178.69 217.906 178.279 218.976 177.894 220.057C177.885 220.083 177.876 220.109 177.867 220.135C177.819 220.272 177.771 220.408 177.723 220.545C177.526 221.113 177.336 221.685 177.153 222.259C176.944 222.916 176.745 223.577 176.556 224.242C176.106 225.821 175.71 227.424 175.372 229.047C175.138 230.17 174.931 231.303 174.752 232.445C174.627 233.24 174.516 234.04 174.419 234.844C174.351 235.407 174.289 235.972 174.235 236.539C174.023 238.745 173.914 240.98 173.914 243.241V229.047C173.914 228.874 173.915 228.701 173.916 228.529C173.927 227.353 173.975 226.187 174.058 225.03C174.077 224.767 174.098 224.504 174.121 224.242C174.342 221.693 174.736 219.193 175.293 216.755C175.374 216.399 175.459 216.045 175.547 215.692C175.595 215.498 175.645 215.304 175.695 215.111C175.698 215.101 175.7 215.091 175.703 215.08C176.018 213.876 176.373 212.687 176.767 211.516C176.81 211.39 176.853 211.263 176.896 211.137C176.914 211.084 176.932 211.032 176.951 210.979C177.355 209.816 177.797 208.67 178.276 207.544C177.683 208.619 177.116 209.711 176.575 210.818C176.554 210.862 176.532 210.906 176.511 210.95C176.447 211.082 176.383 211.215 176.319 211.347C174.356 215.451 172.76 219.763 171.574 224.242C171.155 225.824 170.787 227.426 170.472 229.047C170.422 229.306 170.373 229.566 170.325 229.826C170.166 230.694 170.023 231.567 169.894 232.445C169.639 234.188 169.445 235.95 169.314 237.73C169.18 239.549 169.112 241.387 169.112 243.241V224.242C169.112 223.102 169.147 221.97 169.215 220.847C169.285 219.707 169.389 218.577 169.527 217.457C169.815 215.112 170.251 212.813 170.825 210.569C171.302 208.707 171.873 206.883 172.534 205.102C172.609 204.901 172.685 204.701 172.762 204.501C172.772 204.474 172.782 204.446 172.793 204.419C173.253 203.228 173.754 202.057 174.294 200.907C173.625 201.991 172.981 203.093 172.364 204.21C172.354 204.228 172.344 204.247 172.334 204.265C172.24 204.435 172.146 204.605 172.054 204.776C172.036 204.809 172.018 204.842 172 204.875C170.346 207.934 168.884 211.111 167.629 214.392C167.242 215.404 166.875 216.426 166.528 217.457C165.781 219.677 165.127 221.94 164.572 224.242C163.104 230.335 162.325 236.697 162.325 243.241V217.457C162.325 214.578 162.546 211.751 162.973 208.992C163.355 206.517 163.902 204.097 164.603 201.743C165.559 198.529 166.802 195.438 168.301 192.499C165.425 196.731 162.898 201.221 160.762 205.925C160.472 206.565 160.189 207.208 159.913 207.855C158.587 210.97 157.43 214.175 156.455 217.457C155.605 220.319 154.892 223.241 154.325 226.215C153.274 231.729 152.724 237.422 152.724 243.243V207.855C152.724 206.566 152.768 205.287 152.855 204.019C153.411 195.951 155.707 188.362 159.37 181.624C154.484 188.253 150.367 195.482 147.148 203.182C146.505 204.721 145.897 206.279 145.327 207.855C145.121 208.424 144.92 208.996 144.724 209.569C141.11 220.131 139.148 231.459 139.148 243.245V194.281C139.148 194.062 139.15 193.843 139.152 193.625C139.266 183.934 141.885 174.845 146.393 166.978C140.405 174.562 135.29 182.867 131.199 191.742C130.03 194.277 128.945 196.859 127.947 199.483C122.778 213.081 119.947 227.831 119.947 243.242V175.078C119.947 173.952 119.981 172.835 120.048 171.726C120.588 162.738 123.287 154.332 127.633 147.019C121.851 153.95 116.682 161.409 112.208 169.314C107.656 177.356 103.825 185.858 100.8 194.734C95.6135 209.954 92.7998 226.271 92.7998 243.245V147.934C92.7998 146.098 92.8897 144.283 93.0654 142.494C93.8981 134.013 96.6571 126.097 100.899 119.19C95.265 125.643 90.063 132.484 85.3382 139.666C75.4745 154.66 67.6907 171.145 62.3975 188.709C57.1941 205.974 54.3975 224.283 54.3975 243.245V109.531C54.3975 107.181 54.5449 104.865 54.831 102.592C55.846 94.5294 58.6064 87.0101 62.7219 80.4245C57.238 86.4964 52.0564 92.8464 47.2007 99.451C17.599 139.715 0.111328 189.436 0.111328 243.242C0.111328 297.048 17.5985 346.769 47.1995 387.032C52.0521 393.632 57.2303 399.979 62.7103 406.047C58.6001 399.464 55.8435 391.949 54.8302 383.891C54.5446 381.621 54.3975 379.307 54.3975 376.959V243.245C54.3975 262.207 57.1941 280.516 62.3975 297.781C67.6907 315.345 75.4744 331.83 85.3382 346.824C90.063 354.006 95.265 360.847 100.899 367.3C96.6571 360.393 93.8981 352.477 93.0654 343.996C92.8897 342.207 92.7998 340.392 92.7998 338.557V243.245C92.7998 260.219 95.6135 276.537 100.8 291.756C103.825 300.632 107.657 309.135 112.209 317.177C116.686 325.087 121.859 332.551 127.645 339.486C123.293 332.17 120.59 323.759 120.048 314.765C119.981 313.654 119.947 312.534 119.947 311.406V243.242C119.947 258.653 122.778 273.403 127.947 287.001C128.945 289.625 130.03 292.207 131.199 294.742C135.287 303.612 140.398 311.912 146.382 319.492C141.88 311.628 139.265 302.544 139.152 292.86C139.15 292.643 139.148 292.426 139.148 292.208V243.245C139.148 255.031 141.11 266.359 144.724 276.92C144.919 277.492 145.12 278.062 145.325 278.63C145.896 280.207 146.504 281.767 147.148 283.308C150.369 291.012 154.489 298.246 159.379 304.878C155.711 298.136 153.412 290.541 152.855 282.466C152.768 281.199 152.724 279.919 152.724 278.63V243.243C152.724 249.064 153.274 254.756 154.325 260.271C154.892 263.245 155.605 266.167 156.455 269.029C157.431 272.311 158.587 275.515 159.913 278.63C160.189 279.277 160.472 279.921 160.762 280.56C162.897 285.264 165.423 289.752 168.299 293.983C166.801 291.046 165.559 287.956 164.603 284.743C163.901 282.386 163.353 279.962 162.971 277.484C162.546 274.728 162.325 271.905 162.325 269.029V243.243C162.325 249.786 163.103 256.148 164.571 262.24C165.127 264.543 165.78 266.808 166.528 269.029C166.875 270.059 167.241 271.08 167.628 272.091C168.879 275.363 170.337 278.533 171.986 281.585C172.008 281.626 172.031 281.668 172.054 281.71C172.142 281.872 172.23 282.035 172.32 282.197C172.33 282.215 172.34 282.233 172.35 282.251C172.974 283.381 173.625 284.495 174.301 285.591C173.755 284.429 173.249 283.245 172.784 282.04C172.773 282.013 172.763 281.985 172.752 281.958C172.675 281.758 172.6 281.557 172.525 281.356C171.867 279.581 171.298 277.763 170.824 275.908C170.251 273.667 169.815 271.371 169.527 269.029C169.389 267.91 169.285 266.781 169.216 265.643C169.147 264.517 169.112 263.383 169.112 262.24V243.244C169.112 245.097 169.181 246.934 169.314 248.753C169.446 250.534 169.64 252.297 169.895 254.04C170.023 254.917 170.166 255.789 170.325 256.656C170.373 256.918 170.423 257.18 170.473 257.442C170.788 259.061 171.156 260.661 171.574 262.24C172.762 266.725 174.361 271.043 176.327 275.151C176.39 275.284 176.454 275.416 176.519 275.548C176.54 275.592 176.561 275.636 176.583 275.68C177.118 276.775 177.679 277.855 178.265 278.919C177.792 277.804 177.355 276.671 176.954 275.52C176.936 275.468 176.918 275.415 176.9 275.363C176.856 275.237 176.813 275.11 176.771 274.984C176.376 273.81 176.02 272.619 175.704 271.412C175.701 271.402 175.699 271.392 175.696 271.381C175.646 271.188 175.596 270.994 175.548 270.8C175.459 270.444 175.373 270.087 175.292 269.729C174.735 267.29 174.341 264.79 174.12 262.24C174.098 261.978 174.077 261.715 174.058 261.452C173.975 260.294 173.927 259.127 173.916 257.951C173.915 257.781 173.914 257.612 173.914 257.442V243.244C173.914 245.503 174.022 247.737 174.234 249.941C174.289 250.509 174.35 251.076 174.418 251.64C174.516 252.445 174.627 253.245 174.751 254.04C174.93 255.184 175.138 256.318 175.372 257.442C175.71 259.063 176.105 260.663 176.554 262.24C176.744 262.908 176.944 263.571 177.154 264.23C177.337 264.808 177.529 265.383 177.727 265.955C177.775 266.092 177.823 266.228 177.871 266.365C177.88 266.391 177.889 266.417 177.898 266.442C178.282 267.521 178.692 268.588 179.127 269.642C179.163 269.729 179.199 269.816 179.236 269.902C179.26 269.961 179.285 270.02 179.309 270.078C179.789 271.218 180.299 272.342 180.837 273.45C180.404 272.302 180.008 271.135 179.651 269.952C179.631 269.886 179.611 269.82 179.592 269.754C179.568 269.674 179.545 269.594 179.521 269.514C179.202 268.424 178.916 267.32 178.664 266.203C178.656 266.166 178.647 266.129 178.639 266.093C178.612 265.971 178.585 265.85 178.559 265.728C177.976 263.034 177.59 260.267 177.418 257.442C177.349 256.317 177.314 255.183 177.314 254.04V243.244C177.314 245.505 177.429 247.739 177.651 249.941C177.709 250.51 177.773 251.076 177.845 251.64C177.948 252.445 178.065 253.245 178.196 254.04C178.385 255.184 178.603 256.318 178.85 257.442C179.422 260.042 180.148 262.584 181.017 265.059C181.037 265.115 181.057 265.172 181.077 265.228C181.101 265.294 181.124 265.36 181.148 265.426C181.53 266.494 181.939 267.549 182.374 268.591C182.028 267.52 181.713 266.435 181.432 265.337C181.414 265.265 181.395 265.194 181.377 265.122C181.365 265.072 181.352 265.022 181.34 264.971ZM127.947 243.242C127.947 247.052 131.148 247.052 131.148 243.242C131.148 239.432 127.947 239.432 127.947 243.242ZM74.8948 309.419C77.1659 315.187 84.7998 313.388 84.7998 307.188V179.302C84.7998 173.102 77.1659 171.303 74.8948 177.071C66.8275 197.562 62.3975 219.884 62.3975 243.245C62.3975 266.606 66.8275 288.928 74.8948 309.419ZM36.1111 354.589C38.9398 359.837 46.3975 357.713 46.3975 351.752V134.733C46.3975 128.772 38.9398 126.648 36.1111 131.895C18.2468 165.034 8.11133 202.95 8.11133 243.242C8.11133 283.534 18.2468 321.45 36.1111 354.589ZM111.947 217.565C111.947 211.022 104.592 209.811 103.358 216.236C101.679 224.98 100.8 234.009 100.8 243.245C100.8 252.481 101.679 261.51 103.358 270.254C104.592 276.679 111.947 275.468 111.947 268.925V217.565ZM431.825 376.959C431.825 379.307 431.678 381.621 431.392 383.891C430.379 391.949 427.622 399.464 423.512 406.048C428.992 399.979 434.17 393.633 439.023 387.032C468.624 346.769 486.111 297.048 486.111 243.242C486.111 189.436 468.624 139.714 439.022 99.4508C434.166 92.8461 428.984 86.496 423.5 80.424C427.616 87.0096 430.376 94.5291 431.391 102.592C431.678 104.865 431.825 107.181 431.825 109.531V243.245C431.825 224.283 429.028 205.974 423.825 188.709C418.532 171.145 410.748 154.661 400.884 139.666C396.16 132.484 390.958 125.644 385.324 119.19C389.566 126.097 392.325 134.013 393.157 142.494C393.333 144.283 393.423 146.098 393.423 147.934V243.245C393.423 226.271 390.609 209.954 385.423 194.734C382.398 185.858 378.566 177.356 374.015 169.314C369.541 161.409 364.371 153.95 358.589 147.019C362.935 154.331 365.634 162.738 366.175 171.726C366.241 172.835 366.275 173.952 366.275 175.078V243.242C366.275 227.831 363.445 213.081 358.275 199.483C357.278 196.86 356.193 194.279 355.025 191.745C350.936 182.872 345.821 174.568 339.835 166.984C344.341 174.851 346.959 183.938 347.072 193.628C347.074 193.845 347.076 194.063 347.076 194.281V243.245C347.076 231.456 345.113 220.126 341.498 209.562C341.302 208.991 341.102 208.422 340.897 207.855C340.327 206.279 339.719 204.721 339.076 203.182C335.855 195.477 331.734 188.243 326.844 181.611C330.512 188.352 332.81 195.946 333.366 204.019C333.454 205.287 333.498 206.566 333.498 207.855V243.243C333.498 237.424 332.948 231.733 331.897 226.22C331.33 223.245 330.618 220.321 329.767 217.457C328.791 214.175 327.635 210.97 326.308 207.855C326.032 207.208 325.749 206.565 325.459 205.925C323.325 201.223 320.799 196.735 317.925 192.505C319.422 195.442 320.664 198.531 321.62 201.743C322.32 204.097 322.868 206.516 323.25 208.99C323.676 211.75 323.897 214.578 323.897 217.457V243.241C323.897 236.697 323.119 230.335 321.65 224.242C321.095 221.94 320.442 219.677 319.695 217.457C319.348 216.426 318.981 215.405 318.594 214.394C317.339 211.113 315.877 207.936 314.223 204.877C314.205 204.843 314.187 204.81 314.169 204.776C314.077 204.606 313.984 204.436 313.89 204.266C313.88 204.248 313.87 204.23 313.86 204.212C313.242 203.094 312.598 201.993 311.93 200.908C312.469 202.058 312.97 203.229 313.431 204.421C313.441 204.448 313.451 204.475 313.462 204.502C313.539 204.702 313.615 204.903 313.689 205.104C314.35 206.884 314.921 208.707 315.397 210.568C315.971 212.812 316.408 215.112 316.696 217.457C316.834 218.577 316.938 219.707 317.007 220.846C317.076 221.97 317.11 223.102 317.11 224.242V243.241C317.11 241.393 317.043 239.561 316.91 237.746C316.778 235.961 316.584 234.193 316.329 232.445C316.2 231.567 316.056 230.694 315.897 229.826C315.85 229.566 315.801 229.306 315.75 229.047C315.436 227.426 315.068 225.824 314.649 224.242C313.463 219.767 311.869 215.458 309.909 211.358C309.845 211.225 309.781 211.092 309.717 210.96C309.695 210.916 309.674 210.872 309.653 210.828C309.111 209.718 308.542 208.623 307.947 207.545C308.427 208.675 308.871 209.823 309.276 210.99C309.294 211.042 309.312 211.095 309.331 211.147C309.374 211.274 309.417 211.4 309.46 211.527C309.85 212.688 310.202 213.867 310.515 215.061C310.518 215.071 310.52 215.081 310.523 215.092C310.573 215.285 310.623 215.479 310.671 215.673C310.761 216.032 310.848 216.394 310.93 216.756C311.487 219.194 311.881 221.693 312.102 224.242C312.125 224.505 312.146 224.769 312.165 225.033C312.248 226.186 312.295 227.348 312.306 228.519C312.308 228.695 312.309 228.871 312.309 229.047V243.241C312.309 240.98 312.2 238.745 311.988 236.539C311.934 235.972 311.872 235.407 311.804 234.844C311.707 234.04 311.596 233.24 311.471 232.445C311.292 231.303 311.085 230.17 310.851 229.047C310.513 227.424 310.117 225.821 309.667 224.242C309.478 223.577 309.278 222.916 309.069 222.259C308.889 221.692 308.702 221.128 308.508 220.567C308.46 220.43 308.412 220.293 308.364 220.157C308.355 220.131 308.345 220.105 308.336 220.079C307.947 218.984 307.531 217.901 307.09 216.833C307.054 216.746 307.018 216.659 306.981 216.572C306.957 216.513 306.932 216.455 306.908 216.396C306.432 215.268 305.928 214.155 305.395 213.058C305.824 214.195 306.215 215.35 306.569 216.522C306.589 216.588 306.609 216.654 306.628 216.72C306.652 216.799 306.676 216.879 306.699 216.959C307.023 218.065 307.313 219.185 307.568 220.319C307.577 220.356 307.585 220.392 307.593 220.429C307.62 220.551 307.647 220.672 307.673 220.794C308.252 223.477 308.635 226.234 308.806 229.047C308.875 230.171 308.91 231.304 308.91 232.445V243.242C308.91 240.979 308.795 238.743 308.572 236.539C308.515 235.972 308.45 235.407 308.378 234.844C308.276 234.04 308.159 233.24 308.028 232.445C307.839 231.302 307.621 230.169 307.374 229.047C306.805 226.458 306.083 223.926 305.218 221.461C305.199 221.404 305.179 221.347 305.159 221.291C305.135 221.225 305.112 221.159 305.088 221.093C304.701 220.01 304.286 218.94 303.845 217.883C304.196 218.969 304.515 220.069 304.8 221.183C304.818 221.255 304.836 221.326 304.854 221.398C304.867 221.449 304.879 221.499 304.892 221.549C305.497 223.988 305.94 226.492 306.208 229.047C306.325 230.17 306.409 231.303 306.458 232.445C306.492 233.241 306.509 234.04 306.509 234.844V243.242C306.509 240.978 306.391 238.742 306.159 236.539C306.1 235.972 306.033 235.407 305.958 234.844C305.852 234.039 305.73 233.24 305.594 232.445C305.398 231.302 305.171 230.169 304.914 229.047C304.706 228.138 304.479 227.237 304.233 226.344C303.836 224.905 303.389 223.487 302.896 222.091C303.512 224.36 303.986 226.687 304.309 229.062C304.461 230.179 304.579 231.307 304.663 232.445C304.721 233.24 304.763 234.04 304.787 234.844C304.804 235.407 304.813 235.972 304.813 236.539V249.941C304.813 250.509 304.804 251.076 304.787 251.64C304.763 252.445 304.721 253.245 304.662 254.04C304.579 255.176 304.461 256.303 304.309 257.418C303.985 259.8 303.509 262.133 302.891 264.407C303.387 263.006 303.835 261.583 304.233 260.139C304.479 259.248 304.706 258.348 304.913 257.442C305.17 256.319 305.397 255.185 305.594 254.04C305.73 253.245 305.852 252.445 305.958 251.64C306.033 251.076 306.1 250.51 306.16 249.941C306.391 247.74 306.509 245.506 306.509 243.244V251.64C306.509 252.444 306.492 253.245 306.458 254.04C306.409 255.184 306.325 256.318 306.207 257.442C305.939 260.001 305.495 262.508 304.888 264.95C304.876 265 304.863 265.05 304.85 265.101C304.832 265.172 304.814 265.244 304.796 265.316C304.512 266.427 304.193 267.525 303.842 268.608C304.283 267.554 304.697 266.486 305.084 265.405C305.107 265.34 305.131 265.274 305.154 265.208C305.174 265.152 305.194 265.095 305.214 265.038C306.08 262.57 306.803 260.035 307.374 257.442C307.621 256.318 307.839 255.184 308.028 254.04C308.159 253.245 308.276 252.445 308.379 251.64C308.451 251.076 308.515 250.51 308.573 249.941C308.795 247.739 308.909 245.505 308.91 243.244V254.04C308.91 255.183 308.875 256.317 308.806 257.442C308.634 260.259 308.25 263.019 307.67 265.706C307.644 265.828 307.617 265.949 307.59 266.071C307.582 266.107 307.573 266.144 307.565 266.181C307.31 267.312 307.021 268.429 306.697 269.533C306.674 269.613 306.65 269.692 306.627 269.772C306.607 269.838 306.587 269.904 306.567 269.97C306.213 271.144 305.82 272.301 305.39 273.44C305.924 272.341 306.43 271.226 306.906 270.095C306.931 270.037 306.956 269.978 306.98 269.92C307.016 269.833 307.052 269.746 307.088 269.659C307.529 268.593 307.944 267.513 308.332 266.421C308.341 266.395 308.351 266.369 308.36 266.343C308.408 266.207 308.456 266.07 308.504 265.933C308.699 265.369 308.888 264.801 309.069 264.231C309.279 263.572 309.479 262.908 309.669 262.24C310.118 260.663 310.513 259.063 310.851 257.442C311.085 256.318 311.293 255.184 311.472 254.04C311.596 253.245 311.707 252.445 311.805 251.64C311.873 251.076 311.934 250.509 311.989 249.941C312.201 247.737 312.309 245.503 312.309 243.244V257.442C312.309 257.615 312.308 257.787 312.306 257.96C312.296 259.132 312.248 260.296 312.165 261.449C312.146 261.713 312.125 261.977 312.102 262.24C311.882 264.789 311.488 267.289 310.932 269.727C310.848 270.093 310.761 270.457 310.67 270.82C310.622 271.014 310.572 271.208 310.522 271.401C310.519 271.411 310.517 271.421 310.514 271.431C310.2 272.628 309.847 273.809 309.456 274.973C309.413 275.1 309.37 275.226 309.327 275.352C309.309 275.405 309.29 275.457 309.272 275.51C308.871 276.663 308.433 277.8 307.958 278.917C308.546 277.85 309.109 276.768 309.645 275.67C309.666 275.626 309.688 275.582 309.709 275.538C309.773 275.406 309.837 275.273 309.901 275.141C311.865 271.036 313.462 266.721 314.649 262.24C315.067 260.661 315.435 259.061 315.749 257.442C315.8 257.181 315.849 256.919 315.897 256.657C316.056 255.79 316.2 254.918 316.328 254.04C316.584 252.291 316.778 250.523 316.91 248.736C317.043 246.923 317.11 245.091 317.11 243.244V262.24C317.11 263.383 317.076 264.518 317.007 265.644C316.937 266.782 316.833 267.911 316.696 269.029C316.407 271.371 315.972 273.668 315.398 275.909C314.924 277.764 314.356 279.58 313.698 281.354C313.624 281.555 313.548 281.756 313.471 281.956C313.461 281.984 313.45 282.011 313.44 282.038C312.974 283.243 312.468 284.428 311.922 285.59C312.598 284.494 313.249 283.38 313.874 282.249C313.884 282.231 313.894 282.213 313.904 282.195C313.993 282.034 314.081 281.872 314.169 281.71C314.192 281.668 314.215 281.625 314.238 281.583C315.886 278.531 317.344 275.361 318.595 272.089C318.982 271.079 319.348 270.059 319.695 269.029C320.442 266.808 321.096 264.543 321.651 262.24C323.12 256.148 323.897 249.786 323.897 243.243V269.029C323.897 271.905 323.677 274.729 323.251 277.486C322.869 279.963 322.321 282.386 321.62 284.743C320.664 287.954 319.424 291.042 317.927 293.977C320.801 289.748 323.325 285.261 325.459 280.56C325.749 279.921 326.032 279.277 326.308 278.63C327.634 275.515 328.791 272.311 329.766 269.029C330.617 266.165 331.33 263.241 331.897 260.265C332.948 254.752 333.498 249.062 333.498 243.243V278.63C333.498 279.919 333.454 281.199 333.366 282.466C332.81 290.546 330.508 298.145 326.835 304.891C331.729 298.255 335.853 291.017 339.076 283.308C339.72 281.767 340.328 280.207 340.899 278.63C341.103 278.065 341.303 277.497 341.498 276.927C345.113 266.364 347.076 255.034 347.076 243.245V292.208C347.076 292.425 347.074 292.641 347.072 292.856C346.96 302.54 344.346 311.622 339.846 319.486C345.828 311.906 350.938 303.607 355.026 294.739C356.194 292.205 357.278 289.624 358.275 287.001C363.445 273.403 366.275 258.653 366.275 243.242V311.406C366.275 312.534 366.241 313.654 366.174 314.765C365.633 323.759 362.929 332.17 358.577 339.486C364.364 332.551 369.537 325.087 374.014 317.177C378.566 309.135 382.398 300.632 385.423 291.756C390.609 276.537 393.423 260.219 393.423 243.245V338.557C393.423 340.392 393.333 342.207 393.157 343.996C392.325 352.477 389.566 360.393 385.324 367.3C390.958 360.846 396.16 354.006 400.884 346.824C410.748 331.829 418.532 315.345 423.825 297.781C429.028 280.516 431.825 262.207 431.825 243.245V376.959ZM401.423 307.188C401.423 313.388 409.057 315.187 411.328 309.419C419.395 288.928 423.825 266.606 423.825 243.245C423.825 219.884 419.395 197.563 411.328 177.071C409.057 171.303 401.423 173.102 401.423 179.302V307.188ZM374.275 268.925C374.275 275.468 381.63 276.679 382.864 270.254C384.544 261.51 385.423 252.481 385.423 243.245C385.423 234.009 384.544 224.98 382.864 216.236C381.63 209.811 374.275 211.022 374.275 217.565V268.925ZM358.275 243.242C358.275 247.051 355.076 247.051 355.076 243.242C355.076 239.434 358.275 239.434 358.275 243.242ZM450.111 131.895C447.283 126.647 439.825 128.771 439.825 134.733V351.752C439.825 357.713 447.283 359.837 450.111 354.59C467.976 321.451 478.111 283.534 478.111 243.242C478.111 202.95 467.976 165.034 450.111 131.895Z" fill="white"/>
</svg>
