<svg width="486" height="486" viewBox="0 0 486 486" fill="none" xmlns="http://www.w3.org/2000/svg">
<path fill-rule="evenodd" clip-rule="evenodd" d="M243 0H88C57.1971 0 41.7957 0 30.0305 5.99464C19.6816 11.2677 11.2677 19.6816 5.99464 30.0305C0 41.7957 0 57.1971 0 88V243V398C0 428.803 0 444.204 5.99464 455.969C11.2677 466.318 19.6816 474.732 30.0305 480.005C41.7957 486 57.1971 486 88 486H243H398C428.803 486 444.204 486 455.969 480.005C466.318 474.732 474.732 466.318 480.005 455.969C486 444.204 486 428.803 486 398V243V88C486 57.1971 486 41.7957 480.005 30.0305C474.732 19.6816 466.318 11.2677 455.969 5.99464C444.204 0 428.803 0 398 0H243ZM243 0C377.205 0 486 108.795 486 243C486 377.205 377.205 486 243 486C108.795 486 0 377.205 0 243C0 108.795 108.795 0 243 0Z" fill="#F6F6F6"/>
<path fill-rule="evenodd" clip-rule="evenodd" d="M243.001 54.2852H142.287C111.484 54.2852 96.0828 54.2852 84.3176 60.2798C73.9687 65.5528 65.5548 73.9668 60.2818 84.3157C54.2871 96.0808 54.2871 111.482 54.2871 142.285V242.999V343.713C54.2871 374.516 54.2871 389.917 60.2818 401.682C65.5548 412.031 73.9687 420.445 84.3176 425.718C96.0828 431.713 111.484 431.713 142.287 431.713H243.001H343.715C374.518 431.713 389.919 431.713 401.684 425.718C412.033 420.445 420.447 412.031 425.72 401.682C431.715 389.917 431.715 374.516 431.715 343.713V242.999V142.285C431.715 111.482 431.715 96.0808 425.72 84.3157C420.447 73.9668 412.033 65.5528 401.684 60.2798C389.919 54.2852 374.518 54.2852 343.715 54.2852H243.001ZM243.001 54.2852C347.225 54.2852 431.715 138.775 431.715 242.999C431.715 347.223 347.225 431.713 243.001 431.713C138.777 431.713 54.2871 347.223 54.2871 242.999C54.2871 138.775 138.777 54.2852 243.001 54.2852Z" fill="#F6F6F6"/>
<path fill-rule="evenodd" clip-rule="evenodd" d="M243.001 92.6875H180.689C149.887 92.6875 134.485 92.6875 122.72 98.6821C112.371 103.955 103.957 112.369 98.6841 122.718C92.6895 134.483 92.6895 149.885 92.6895 180.687V242.999V305.31C92.6895 336.113 92.6895 351.515 98.6841 363.28C103.957 373.629 112.371 382.043 122.72 387.316C134.485 393.31 149.887 393.31 180.689 393.31H243.001H305.312C336.115 393.31 351.517 393.31 363.282 387.316C373.631 382.043 382.045 373.629 387.318 363.28C393.312 351.515 393.312 336.113 393.312 305.31V242.999V180.687C393.312 149.885 393.312 134.483 387.318 122.718C382.045 112.369 373.631 103.955 363.282 98.6821C351.517 92.6875 336.115 92.6875 305.312 92.6875H243.001ZM243.001 92.6875C326.016 92.6875 393.312 159.984 393.312 242.999C393.312 326.014 326.016 393.31 243.001 393.31C159.986 393.31 92.6895 326.014 92.6895 242.999C92.6895 159.984 159.986 92.6875 243.001 92.6875Z" fill="#F6F6F6"/>
<path fill-rule="evenodd" clip-rule="evenodd" d="M243 119.836H207.836C177.033 119.836 161.632 119.836 149.866 125.831C139.518 131.104 131.104 139.518 125.831 149.866C119.836 161.632 119.836 177.033 119.836 207.836V243V278.164C119.836 308.967 119.836 324.368 125.831 336.133C131.104 346.482 139.518 354.896 149.866 360.169C161.632 366.164 177.033 366.164 207.836 366.164H243H278.164C308.967 366.164 324.368 366.164 336.133 360.169C346.482 354.896 354.896 346.482 360.169 336.133C366.164 324.368 366.164 308.967 366.164 278.164V243V207.836C366.164 177.033 366.164 161.632 360.169 149.866C354.896 139.518 346.482 131.104 336.133 125.831C324.368 119.836 308.967 119.836 278.164 119.836H243ZM243 119.836C311.022 119.836 366.164 174.978 366.164 243C366.164 311.022 311.022 366.164 243 366.164C174.978 366.164 119.836 311.022 119.836 243C119.836 174.978 174.978 119.836 243 119.836Z" fill="#F6F6F6"/>
<path fill-rule="evenodd" clip-rule="evenodd" d="M243.001 139.035H227.037C196.234 139.035 180.833 139.035 169.068 145.03C158.719 150.303 150.305 158.717 145.032 169.066C139.037 180.831 139.037 196.232 139.037 227.035V242.999V258.962C139.037 289.765 139.037 305.167 145.032 316.932C150.305 327.281 158.719 335.695 169.068 340.968C180.833 346.962 196.234 346.962 227.037 346.962H243.001H258.964C289.767 346.962 305.169 346.962 316.934 340.968C327.283 335.695 335.697 327.281 340.97 316.932C346.964 305.167 346.964 289.765 346.964 258.962V242.999V227.035C346.964 196.232 346.964 180.831 340.97 169.066C335.697 158.717 327.283 150.303 316.934 145.03C305.169 139.035 289.767 139.035 258.964 139.035H243.001ZM243.001 139.035C300.418 139.035 346.964 185.581 346.964 242.999C346.964 300.416 300.418 346.962 243.001 346.962C185.583 346.962 139.037 300.416 139.037 242.999C139.037 185.581 185.583 139.035 243.001 139.035Z" fill="#F6F6F6"/>
<path fill-rule="evenodd" clip-rule="evenodd" d="M243 152.613H240.613C209.81 152.613 194.409 152.613 182.644 158.608C172.295 163.881 163.881 172.295 158.608 182.644C152.613 194.409 152.613 209.81 152.613 240.613V243V245.388C152.613 276.191 152.613 291.592 158.608 303.357C163.881 313.706 172.295 322.12 182.644 327.393C194.409 333.388 209.81 333.388 240.613 333.388H243H245.388C276.191 333.388 291.592 333.388 303.357 327.393C313.706 322.12 322.12 313.706 327.393 303.357C333.388 291.592 333.388 276.191 333.388 245.388V243V240.613C333.388 209.81 333.388 194.409 327.393 182.644C322.12 172.295 313.706 163.881 303.357 158.608C291.592 152.613 276.191 152.613 245.388 152.613H243ZM243 152.613C292.92 152.613 333.388 193.081 333.388 243C333.388 292.92 292.92 333.388 243 333.388C193.081 333.388 152.613 292.92 152.613 243C152.613 193.081 193.081 152.613 243 152.613Z" fill="#F6F6F6"/>
<path fill-rule="evenodd" clip-rule="evenodd" d="M243.001 162.215V162.215C218.982 162.215 206.973 162.215 197.417 165.902C182.935 171.489 171.489 182.935 165.902 197.417C162.215 206.973 162.215 218.982 162.215 243.001V243.001V243.001C162.215 267.02 162.215 279.029 165.902 288.585C171.489 303.067 182.935 314.513 197.417 320.1C206.973 323.787 218.982 323.787 243.001 323.787V323.787V323.787C267.02 323.787 279.029 323.787 288.585 320.1C303.067 314.513 314.513 303.067 320.1 288.585C323.787 279.029 323.787 267.02 323.787 243.001V243.001V243.001C323.787 218.982 323.787 206.973 320.1 197.417C314.513 182.935 303.067 171.489 288.585 165.902C279.029 162.215 267.02 162.215 243.001 162.215V162.215ZM243.001 162.215C287.618 162.215 323.787 198.384 323.787 243.001C323.787 287.618 287.618 323.787 243.001 323.787C198.384 323.787 162.215 287.618 162.215 243.001C162.215 198.384 198.384 162.215 243.001 162.215Z" fill="#F6F6F6"/>
<path fill-rule="evenodd" clip-rule="evenodd" d="M242.999 169V169C225.328 169 216.493 169 209.261 171.012C190.689 176.178 176.178 190.689 171.012 209.261C169 216.493 169 225.328 169 242.999V242.999V242.999C169 260.67 169 269.505 171.012 276.738C176.178 295.309 190.689 309.82 209.261 314.986C216.493 316.998 225.328 316.998 242.999 316.998V316.998V316.998C260.67 316.998 269.505 316.998 276.738 314.986C295.309 309.82 309.82 295.309 314.986 276.738C316.998 269.505 316.998 260.67 316.998 242.999V242.999V242.999C316.998 225.328 316.998 216.493 314.986 209.261C309.82 190.689 295.309 176.178 276.738 171.012C269.505 169 260.67 169 242.999 169V169ZM242.999 169C283.868 169 316.998 202.131 316.998 242.999C316.998 283.868 283.868 316.998 242.999 316.998C202.131 316.998 169 283.868 169 242.999C169 202.131 202.131 169 242.999 169Z" fill="#F6F6F6"/>
<path fill-rule="evenodd" clip-rule="evenodd" d="M243 173.801V173.801C229.806 173.801 223.208 173.801 217.728 174.927C196.189 179.355 179.357 196.187 174.929 217.726C173.803 223.206 173.803 229.804 173.803 242.998V242.998V242.998C173.803 256.193 173.803 262.79 174.929 268.27C179.357 289.809 196.189 306.641 217.728 311.069C223.208 312.196 229.806 312.196 243 312.196V312.196V312.196C256.195 312.196 262.792 312.196 268.272 311.069C289.811 306.641 306.643 289.809 311.071 268.27C312.198 262.79 312.198 256.193 312.198 242.998V242.998V242.998C312.198 229.804 312.198 223.206 311.071 217.726C306.643 196.187 289.811 179.355 268.272 174.927C262.792 173.801 256.195 173.801 243 173.801V173.801ZM243 173.801C281.217 173.801 312.198 204.782 312.198 242.998C312.198 281.215 281.217 312.196 243 312.196C204.783 312.196 173.803 281.215 173.803 242.998C173.803 204.782 204.783 173.801 243 173.801Z" fill="#F6F6F6"/>
<path fill-rule="evenodd" clip-rule="evenodd" d="M243.001 177.203V177.203C232.97 177.203 227.955 177.203 223.756 177.856C200.096 181.533 181.533 200.096 177.856 223.756C177.203 227.955 177.203 232.97 177.203 243.001V243.001V243.001C177.203 253.031 177.203 258.047 177.856 262.245C181.533 285.906 200.096 304.468 223.756 308.146C227.955 308.798 232.97 308.798 243.001 308.798V308.798V308.798C253.031 308.798 258.047 308.798 262.245 308.146C285.906 304.468 304.468 285.906 308.146 262.245C308.798 258.047 308.798 253.031 308.798 243.001V243.001V243.001C308.798 232.97 308.798 227.955 308.146 223.756C304.468 200.096 285.906 181.533 262.245 177.856C258.047 177.203 253.031 177.203 243.001 177.203V177.203ZM243.001 177.203C279.34 177.203 308.798 206.662 308.798 243.001C308.798 279.34 279.34 308.798 243.001 308.798C206.662 308.798 177.203 279.34 177.203 243.001C177.203 206.662 206.662 177.203 243.001 177.203Z" fill="#F6F6F6"/>
<path fill-rule="evenodd" clip-rule="evenodd" d="M243 179.602V179.602C235.2 179.602 231.3 179.602 228.021 179.997C202.861 183.029 183.029 202.861 179.997 228.021C179.602 231.3 179.602 235.2 179.602 243V243V243C179.602 250.8 179.602 254.7 179.997 257.978C183.029 283.139 202.861 302.971 228.021 306.003C231.3 306.398 235.2 306.398 243 306.398V306.398V306.398C250.8 306.398 254.7 306.398 257.978 306.003C283.139 302.971 302.971 283.139 306.003 257.978C306.398 254.7 306.398 250.8 306.398 243V243V243C306.398 235.2 306.398 231.3 306.003 228.021C302.971 202.861 283.139 183.029 257.978 179.997C254.7 179.602 250.8 179.602 243 179.602V179.602ZM243 179.602C278.014 179.602 306.398 207.986 306.398 243C306.398 278.014 278.014 306.398 243 306.398C207.986 306.398 179.602 278.014 179.602 243C179.602 207.986 207.986 179.602 243 179.602Z" fill="#F6F6F6"/>
<path fill-rule="evenodd" clip-rule="evenodd" d="M243 181.301V181.301C236.777 181.301 233.665 181.301 231.044 181.552C204.823 184.069 184.067 204.824 181.55 231.046C181.299 233.667 181.299 236.779 181.299 243.002V243.002V243.002C181.299 249.225 181.299 252.336 181.55 254.957C184.067 281.179 204.823 301.934 231.044 304.451C233.665 304.703 236.777 304.703 243 304.703V304.703V304.703C249.223 304.703 252.334 304.703 254.955 304.451C281.177 301.934 301.932 281.179 304.449 254.957C304.701 252.336 304.701 249.225 304.701 243.002V243.002V243.002C304.701 236.779 304.701 233.667 304.449 231.046C301.932 204.824 281.177 184.069 254.955 181.552C252.334 181.301 249.223 181.301 243 181.301V181.301ZM243 181.301C277.076 181.301 304.701 208.925 304.701 243.002C304.701 277.078 277.076 304.703 243 304.703C208.923 304.703 181.299 277.078 181.299 243.002C181.299 208.925 208.923 181.301 243 181.301Z" fill="#F6F6F6"/>
</svg>
