<svg width="541" height="73" viewBox="0 0 541 73" fill="none" xmlns="http://www.w3.org/2000/svg">
<path d="M105.69 72.3097C87.3592 72.3097 73.4932 60.5337 73.4932 36.5961C73.4932 12.4653 87.3592 0.689453 105.69 0.689453C120.505 0.689453 133.232 9.47305 135.037 24.4342H126.299C124.495 14.2992 115.852 8.41133 105.69 8.41133C92.203 8.41133 82.326 17.581 82.326 36.5961C82.326 55.4181 92.203 64.5877 105.69 64.5877C115.852 64.5877 124.495 58.6997 126.299 48.4685H135.037C133.232 63.719 120.505 72.3097 105.69 72.3097ZM168.76 72.3097C148.151 72.3097 135.709 59.4719 135.709 36.4996C135.709 13.527 148.151 0.689453 168.76 0.689453C189.275 0.689453 201.717 13.527 201.717 36.4996C201.717 59.4719 189.275 72.3097 168.76 72.3097ZM168.76 64.5877C183.957 64.5877 192.979 54.5494 192.979 36.4996C192.979 18.4497 183.957 8.41133 168.76 8.41133C153.47 8.41133 144.542 18.4497 144.542 36.4996C144.542 54.5494 153.47 64.5877 168.76 64.5877ZM233.571 70.9584H223.599L195.866 2.04078H205.459L228.348 60.3406H229.297L252.091 2.04078H261.304L233.571 70.9584ZM311.205 70.9584H263.243V2.04078H310.73V9.76262H271.791V32.6386H306.456V40.3605H271.791V63.2364H311.205V70.9584ZM322.599 70.9584H314.051V2.04078H340.169C358.974 2.04078 364.957 11.0174 364.957 21.5385C364.957 29.936 362.108 36.403 352.896 39.3952V40.3605C360.874 42.5806 363.723 47.9858 365.717 56.8657L369.041 70.9584H360.304L357.17 57.4449C355.555 50.3989 353.086 44.2214 340.739 44.2214H322.599V70.9584ZM322.599 9.76262V36.4996H340.264C352.136 36.4996 356.22 30.129 356.22 22.9863C356.22 15.6506 352.136 9.76262 340.264 9.76262H322.599ZM395.601 72.3097C376.416 72.3097 368.343 62.9468 368.343 51.8468V50.4954H376.891V51.3642C376.891 58.7962 382.114 64.7808 395.411 64.7808C408.423 64.7808 413.931 59.4719 413.931 52.5225C413.931 34.183 370.243 47.7928 370.243 20.3802C370.243 9.56957 378.126 0.689453 395.411 0.689453C413.741 0.689453 420.864 10.0522 420.864 21.5385V22.5037H412.317V21.7315C412.317 13.9131 407.663 8.21828 395.411 8.21828C383.919 8.21828 378.981 13.527 378.981 20.2837C378.981 39.4918 422.669 25.882 422.669 52.6189C422.669 63.1398 414.216 72.3097 395.601 72.3097ZM473.46 70.9584H425.498V2.04078H472.985V9.76262H434.046V32.6386H468.712V40.3605H434.046V63.2364H473.46V70.9584ZM484.547 70.9584H475.334L503.066 2.04078H513.039L540.772 70.9584H531.18L524.436 53.6807H491.29L484.547 70.9584ZM507.435 12.3688L494.139 45.9589H521.587L508.385 12.3688H507.435Z" fill="white"/>
<path d="M8.1324 1.12598H35.4997C26.3825 1.12598 18.0707 4.57522 11.7984 10.2398C13.0272 9.47217 14.4792 9.02834 16.035 9.02834H35.4997C28.5868 9.02834 22.2701 11.5818 17.4418 15.7969C18.6592 15.0495 20.0917 14.6185 21.625 14.6185H35.4995C30.1705 14.6185 25.2862 16.5236 21.4911 19.6897C22.6872 18.9786 24.0844 18.5701 25.577 18.5701H35.4997C31.3078 18.5701 27.4515 20.0087 24.3985 22.4191C25.5694 21.7483 26.9261 21.3651 28.3722 21.3651H35.4997C32.1416 21.3651 29.0386 22.4589 26.5281 24.31C27.6633 23.6922 28.965 23.3414 30.3484 23.3414H35.4997C32.7623 23.3414 30.2202 24.1772 28.1146 25.6079C29.2046 25.052 30.4389 24.7387 31.7462 24.7387H35.4997C33.2394 24.7387 31.1275 25.3764 29.3352 26.4821C30.3666 25.9977 31.5187 25.727 32.7339 25.727H35.4995C33.6162 25.727 31.8457 26.2103 30.3052 27.0598C31.266 26.6516 32.3233 26.4258 33.433 26.4258H35.4997C33.9235 26.4258 32.4317 26.7878 31.103 27.4331C31.9816 27.1022 32.9337 26.9208 33.928 26.9208H35.4997C34.1924 26.9208 32.946 27.1827 31.8107 27.6569C32.0237 27.5881 32.2403 27.5278 32.4607 27.4766C33.0444 27.3416 33.6525 27.2699 34.2772 27.2699H35.4997C34.4193 27.2699 33.3821 27.4556 32.4186 27.7968C33.0895 27.6142 33.7955 27.517 34.5242 27.517H35.4997C30.539 27.517 26.5178 31.5383 26.5178 36.4986V35.5232C26.5178 34.7945 26.6153 34.0885 26.7976 33.4176C26.4564 34.3811 26.2708 35.4183 26.2708 36.4986V35.2761C26.2708 34.8718 26.3009 34.4747 26.3586 34.0863C26.424 33.6481 26.5247 33.2217 26.658 32.8097C26.1835 33.9452 25.9216 35.1914 25.9216 36.4986V34.927C25.9216 33.9327 26.103 32.9806 26.4342 32.1021C25.7886 33.4306 25.4266 34.9224 25.4266 36.4986V34.432C25.4266 33.3217 25.6527 32.2644 26.0609 31.3032C25.2111 32.8438 24.7275 34.6148 24.7275 36.4986V33.7331C24.7275 32.5186 24.9978 31.3671 25.4821 30.3359C24.3772 32.1279 23.7397 34.2389 23.7397 36.4984V32.7449C23.7397 31.4373 24.0531 30.2032 24.6092 29.1128C23.1782 31.2187 22.3421 33.761 22.3421 36.4986V31.3475C22.3421 29.9641 22.6929 28.6625 23.3107 27.5273C21.4598 30.0377 20.3657 33.1404 20.3657 36.4986V29.3713C20.3657 27.9253 20.749 26.5688 21.4197 25.3978C19.0093 28.4507 17.5706 32.3068 17.5706 36.4986V26.5762C17.5706 25.0836 17.9792 23.6862 18.6906 22.4901C15.5238 26.2854 13.6186 31.1695 13.6186 36.4986V22.6246C13.6186 21.0913 14.0496 19.659 14.7968 18.4416C10.5821 23.27 8.02858 29.5862 8.02858 36.4986V17.0345C8.02858 15.4788 8.47243 14.0268 9.24007 12.798C3.57533 19.0702 0.125977 27.3817 0.125977 36.4986V9.13215C0.125977 4.71055 3.71067 1.12598 8.1324 1.12598Z" fill="white"/>
<path d="M35.4997 71.8725H8.1324C3.71067 71.8725 0.125977 68.288 0.125977 63.8662V36.4998C0.125977 45.6164 3.57504 53.9277 9.23952 60.2C8.47215 58.971 8.02858 57.5194 8.02858 55.9642V36.4998C8.02858 43.4125 10.5821 49.7287 14.7968 54.5568C14.0496 53.3398 13.6186 51.9071 13.6186 50.3741V36.4998C13.6186 41.8292 15.5241 46.7139 18.6911 50.5091C17.9795 49.3128 17.5706 47.9151 17.5706 46.4219V36.4998C17.5706 40.6914 19.0093 44.5469 21.4194 47.6001C20.749 46.4293 20.3657 45.0729 20.3657 43.6274V36.4998C20.3657 39.8581 21.4598 42.961 23.3107 45.4714C22.6929 44.3362 22.3421 43.0346 22.3421 41.6509V36.4998C22.3421 39.238 23.1785 41.7808 24.61 43.8867C24.0537 42.7964 23.7397 41.5614 23.7397 40.2532V36.4995C23.7397 38.7586 24.3766 40.8688 25.4806 42.6602C24.9976 41.6296 24.7275 40.4793 24.7275 39.2655V36.4998C24.7275 38.3842 25.2114 40.1555 26.0615 41.6961C25.6529 40.7349 25.4266 39.677 25.4266 38.5664V36.4998C25.4266 38.0757 25.7886 39.5672 26.434 40.8958C26.1027 40.0173 25.9216 39.0657 25.9216 38.0714V36.4998C25.9216 37.8076 26.1838 39.054 26.6583 40.1896C26.4067 39.4125 26.2708 38.5832 26.2708 37.7223V36.4998C26.2708 37.5802 26.4564 38.6173 26.7976 39.5806C26.7149 39.2763 26.6495 38.9647 26.6028 38.6472C26.5468 38.2645 26.5178 37.873 26.5178 37.475V36.4998C26.5178 41.4601 30.539 45.4812 35.4997 45.4812H34.5242C33.7953 45.4812 33.0893 45.3839 32.4183 45.2014C33.3819 45.5425 34.4191 45.7285 35.4997 45.7285H34.2772C33.4157 45.7285 32.586 45.5923 31.8084 45.3404C32.9445 45.8152 34.1916 46.0776 35.4997 46.0776H33.928C32.9341 46.0776 31.9824 45.8965 31.1044 45.5656C32.4328 46.2107 33.9238 46.5726 35.4997 46.5726H33.433C32.3225 46.5726 31.2645 46.3463 30.3032 45.9377C31.844 46.7878 33.6153 47.2717 35.4995 47.2717H32.7339C31.5201 47.2717 30.3698 47.0016 29.3391 46.5183C31.1306 47.6223 33.2408 48.2594 35.4997 48.2594H31.7462C30.4377 48.2594 29.2027 47.9455 28.112 47.3891C30.2182 48.8206 32.7615 49.657 35.4997 49.657H30.3484C28.965 49.657 27.6631 49.3062 26.5278 48.6884C29.0383 50.5396 32.1414 51.6336 35.4997 51.6336H28.3722C26.9264 51.6336 25.5702 51.2501 24.3997 50.5799C27.4527 52.99 31.308 54.4281 35.4997 54.4281H25.577C24.0838 54.4281 22.6864 54.0195 21.49 53.3079C25.2853 56.4746 30.1699 58.3804 35.4995 58.3804H21.625C20.0917 58.3804 18.6592 57.9493 17.4418 57.2018C22.2704 61.417 28.5868 63.9704 35.4997 63.9704H16.035C14.4795 63.9704 13.0278 63.5267 11.7993 62.7589C18.0716 68.4235 26.3828 71.8725 35.4997 71.8725Z" fill="white"/>
<path d="M70.874 36.4998V63.8662C70.874 68.288 67.2895 71.8725 62.8675 71.8725H35.5003C44.6169 71.8725 52.9279 68.424 59.2002 62.76C57.9717 63.5272 56.52 63.9704 54.9653 63.9704H35.5003C42.4137 63.9704 48.7311 61.4164 53.5596 57.2007C52.3419 57.9488 50.9087 58.3804 49.3747 58.3804H35.5C40.8293 58.3804 45.7136 56.4746 49.5089 53.3084C48.3128 54.0198 46.9156 54.4284 45.4227 54.4284L35.5003 54.4281C39.6914 54.4284 43.5468 52.9903 46.5998 50.5805C45.4292 51.2506 44.0733 51.6336 42.6278 51.6336H35.5003C38.8589 51.6336 41.962 50.5396 44.4725 48.6884C43.3372 49.3062 42.0353 49.657 40.6516 49.657H35.5003C38.2385 49.657 40.7815 48.8209 42.8874 47.3894C41.7971 47.9458 40.562 48.2594 39.2538 48.2594H35.5003C37.76 48.2594 39.8708 47.622 41.6632 46.5174C40.6317 47.0014 39.4805 47.2717 38.2656 47.2717H35.5C37.3839 47.2717 39.1549 46.7881 40.6953 45.9383C39.7343 46.3468 38.677 46.5726 37.567 46.5726H35.5003C37.0757 46.5726 38.5669 46.2109 39.895 45.5658C39.017 45.8968 38.0657 46.0776 37.072 46.0776H35.5003C36.8087 46.0776 38.0563 45.8155 39.1924 45.3404C38.4145 45.5923 37.5846 45.7285 36.7226 45.7285H35.5003C36.581 45.7285 37.6182 45.5428 38.582 45.2014C37.9107 45.3839 37.2045 45.4814 36.4755 45.4814L35.5003 45.4812C40.4605 45.4814 44.4819 41.4601 44.4819 36.4998V37.4753C44.4819 38.2042 44.3846 38.9104 44.2021 39.5814C44.5433 38.6176 44.729 37.5804 44.729 36.4998V37.7223C44.729 38.584 44.5931 39.4142 44.3409 40.1921C44.816 39.056 45.0784 37.8085 45.0784 36.4998V38.0714C45.0784 39.0651 44.8976 40.0167 44.5666 40.8947C45.2117 39.5664 45.5734 38.0754 45.5734 36.4998V38.5664C45.5734 39.6761 45.3476 40.7332 44.9394 41.6939C45.7889 40.1538 46.2719 38.3833 46.2719 36.4998V39.2655C46.2719 40.4807 46.0016 41.6324 45.5171 42.6642C46.6225 40.8716 47.2603 38.7601 47.2603 36.4995V40.2532C47.2603 41.561 46.947 42.7958 46.3908 43.8861C47.8218 41.7803 48.6579 39.2377 48.6579 36.4998V41.6509C48.6579 43.0346 48.3068 44.3365 47.689 45.472C49.5402 42.9613 50.6343 39.8583 50.6343 36.4998V43.6274C50.6343 45.0729 50.2513 46.4284 49.5811 47.599C51.991 44.5463 53.4291 40.6908 53.4291 36.4998V46.4222C53.4291 47.9148 53.0208 49.3119 52.3095 50.5083C55.4758 46.7131 57.381 41.8289 57.381 36.4998V50.3741C57.381 51.9082 56.9494 53.3415 56.2013 54.5591C60.4177 49.7307 62.9717 43.4136 62.9717 36.4998V55.9642C62.9717 57.5188 62.5286 58.9705 61.7613 60.1989C67.4255 53.9268 70.874 45.6162 70.874 36.4998Z" fill="white"/>
<path d="M70.874 36.4986C70.874 27.382 67.425 19.071 61.7608 12.7989C62.528 14.0277 62.9717 15.4793 62.9717 17.0345V36.4986C62.9717 29.5851 60.4177 23.268 56.2013 18.4395C56.9494 19.6572 57.381 21.0905 57.381 22.6246V36.4986C57.381 31.1701 55.4763 26.2862 52.3101 22.4913C53.0211 23.6874 53.4291 25.0842 53.4291 26.5762V36.4986C53.4291 32.3071 51.9908 28.4515 49.5808 25.3989C50.2513 26.5694 50.6343 27.9256 50.6343 29.3713V36.4986C50.6343 33.1404 49.5402 30.0374 47.6893 27.527C48.3071 28.6625 48.6579 29.9641 48.6579 31.3475V36.4986C48.6579 33.7613 47.8221 31.2193 46.3917 29.114C46.9472 30.2037 47.2603 31.4377 47.2603 32.7449V36.4984C47.2603 34.2372 46.6222 32.1251 45.516 30.3322C46.001 31.3646 46.2719 32.5172 46.2719 33.7331V36.4986C46.2719 34.6159 45.7889 32.8458 44.9399 31.3057C45.3476 32.2661 45.5734 33.3229 45.5734 34.432V36.4986C45.5734 34.923 45.2114 33.4318 44.5663 32.1038C44.8973 32.9814 45.0784 33.933 45.0784 34.927V36.4986C45.0784 35.1902 44.816 33.9432 44.3411 32.8074C44.5931 33.585 44.729 34.4147 44.729 35.2761V36.4986C44.729 35.418 44.5433 34.3808 44.2021 33.417C44.3846 34.0882 44.4819 34.7942 44.4819 35.5232V36.4986C44.4819 31.5383 40.4605 27.517 35.5003 27.517H36.4755C37.2042 27.517 37.9105 27.6142 38.5814 27.7968C37.6179 27.4556 36.5807 27.2699 35.5003 27.2699H36.7226C37.5838 27.2699 38.4131 27.4058 39.1902 27.6574C38.0546 27.183 36.8078 26.9208 35.5003 26.9208H37.072C38.0663 26.9208 39.0181 27.1019 39.8961 27.4331C38.5678 26.7878 37.0762 26.4258 35.5003 26.4258H37.567C38.6761 26.4258 39.7329 26.6516 40.6934 27.0593C39.1532 26.21 37.383 25.727 35.5 25.727H38.2656C39.4819 25.727 40.6345 25.9982 41.6669 26.4832C39.874 25.377 37.7617 24.7387 35.5003 24.7387H39.2538C40.5611 24.7387 41.7951 25.052 42.8849 25.6073C40.7795 24.1772 38.2374 23.3414 35.5003 23.3414H40.6516C42.035 23.3414 43.337 23.6925 44.4722 24.31C41.9617 22.4589 38.8586 21.3651 35.5003 21.3651H42.6278C44.0736 21.3651 45.4301 21.7483 46.6009 22.4188C43.5476 20.0084 39.692 18.5701 35.5003 18.5701H45.4227C46.9151 18.5701 48.3119 18.9784 49.5078 19.6891C45.7127 16.5233 40.8287 14.6185 35.5 14.6185H49.3747C50.9087 14.6185 52.3419 15.05 53.5599 15.7981C48.7311 11.5823 42.4137 9.02834 35.5003 9.02834H54.9653C56.5205 9.02834 57.9722 9.47189 59.2013 10.2392C52.9287 4.57494 44.6172 1.12598 35.5003 1.12598H62.8675C67.2895 1.12598 70.874 4.71055 70.874 9.13215V36.4986Z" fill="white"/>
</svg>
