<svg width="529" height="531" viewBox="0 0 529 531" fill="none" xmlns="http://www.w3.org/2000/svg">
<rect width="529" height="531" fill="#101010"/>
<path d="M76.1816 22.1055H264.182C201.55 22.1055 144.453 45.8005 101.365 84.7151C109.806 79.4407 119.782 76.3926 130.469 76.3926H264.183C216.694 76.3926 173.302 93.9336 140.132 122.89C148.495 117.756 158.336 114.795 168.869 114.795H264.181C227.572 114.795 194.021 127.882 167.949 149.633C176.166 144.747 185.764 141.941 196.018 141.941H264.182C235.385 141.941 208.896 151.824 187.922 168.384C195.966 163.776 205.285 161.143 215.219 161.143H264.182C241.112 161.143 219.797 168.657 202.551 181.372C210.351 177.129 219.291 174.719 228.795 174.719H264.182C245.378 174.719 227.914 180.461 213.45 190.288C220.938 186.471 229.416 184.318 238.396 184.318H264.183C248.653 184.318 234.147 188.7 221.833 196.295C228.921 192.967 236.834 191.107 245.182 191.107H264.181C251.242 191.107 239.079 194.428 228.498 200.263C235.099 197.459 242.36 195.908 249.984 195.908H264.182C253.353 195.908 243.106 198.395 233.979 202.83C240.014 200.554 246.554 199.309 253.385 199.309H264.182C255.201 199.309 246.64 201.108 238.84 204.366C244.177 202.64 249.871 201.707 255.783 201.707H264.182C256.759 201.707 249.635 202.982 243.016 205.326C247.625 204.073 252.475 203.404 257.48 203.404H264.181C230.105 203.404 202.48 231.029 202.48 265.105V258.404C202.48 253.398 203.149 248.549 204.402 243.939C202.059 250.559 200.783 257.683 200.783 265.105V256.707C200.783 250.795 201.716 245.101 203.442 239.764C200.184 247.564 198.385 256.125 198.385 265.106V254.309C198.385 247.478 199.63 240.938 201.906 234.904C197.472 244.03 194.984 254.277 194.984 265.106V250.908C194.984 243.281 196.537 236.017 199.343 229.415C193.504 239.998 190.182 252.164 190.182 265.106V246.107C190.182 237.764 192.04 229.854 195.364 222.77C187.775 235.08 183.396 249.581 183.396 265.104V239.318C183.396 230.336 185.55 221.857 189.368 214.368C179.539 228.833 173.795 246.299 173.795 265.106V229.719C173.795 220.215 176.205 211.274 180.448 203.475C167.733 220.721 160.219 242.036 160.219 265.106V216.143C160.219 206.208 162.852 196.89 167.46 188.846C150.9 209.82 141.018 236.308 141.018 265.105V196.941C141.018 186.687 143.824 177.088 148.71 168.871C126.957 194.943 113.869 228.496 113.869 265.106V169.795C113.869 159.262 116.83 149.422 121.964 141.059C93.0089 174.228 75.4688 217.619 75.4688 265.106V131.393C75.4688 120.705 78.5169 110.73 83.7913 102.289C44.8766 145.376 21.1816 202.474 21.1816 265.105V77.1055C21.1816 46.7297 45.806 22.1055 76.1816 22.1055Z" fill="white"/>
<path d="M264.182 508.105H76.1816C45.806 508.105 21.1816 483.481 21.1816 453.105V265.105C21.1816 327.735 44.8752 384.831 83.7878 427.918C78.5156 419.478 75.4688 409.505 75.4688 398.82V265.106C75.4688 312.594 93.0088 355.985 121.964 389.154C116.83 380.791 113.869 370.95 113.869 360.418V265.106C113.869 301.719 126.959 335.273 148.714 361.346C143.825 353.128 141.018 343.526 141.018 333.27V265.105C141.018 293.901 150.899 320.388 167.457 341.361C162.851 333.318 160.219 324.001 160.219 314.07V265.106C160.219 288.177 167.734 309.493 180.449 326.74C176.206 318.939 173.795 309.998 173.795 300.493V265.106C173.795 283.917 179.541 301.385 189.374 315.853C185.552 308.361 183.396 299.878 183.396 290.891V265.104C183.396 280.623 187.772 295.119 195.357 307.427C192.037 300.347 190.182 292.443 190.182 284.105V265.106C190.182 278.051 193.505 290.219 199.346 300.804C196.538 294.199 194.984 286.933 194.984 279.303V265.106C194.984 275.933 197.471 286.179 201.904 295.305C199.629 289.271 198.385 282.733 198.385 275.904V265.106C198.385 274.09 200.185 282.653 203.445 290.454C201.717 285.115 200.783 279.418 200.783 273.504V265.105C200.783 272.528 202.059 279.652 204.402 286.271C203.149 281.662 202.48 276.812 202.48 271.806V265.105C202.48 299.182 230.105 326.806 264.181 326.806H257.48C252.474 326.806 247.623 326.137 243.013 324.884C249.633 327.228 256.758 328.504 264.182 328.504H255.783C249.865 328.504 244.166 327.569 238.824 325.839C246.628 329.102 255.195 330.904 264.182 330.904H253.385C246.557 330.904 240.02 329.659 233.988 327.386C243.113 331.817 253.357 334.303 264.182 334.303H249.984C242.355 334.303 235.088 332.75 228.484 329.942C239.069 335.782 251.237 339.105 264.181 339.105H245.182C236.844 339.105 228.94 337.25 221.86 333.931C234.168 341.515 248.664 345.891 264.183 345.891H238.396C229.409 345.891 220.924 343.735 213.433 339.912C227.9 349.746 245.37 355.493 264.182 355.493H228.795C219.29 355.493 210.348 353.082 202.548 348.838C219.794 361.555 241.111 369.07 264.182 369.07H215.219C205.288 369.07 195.971 366.438 187.929 361.833C208.902 378.389 235.388 388.27 264.182 388.27H196.018C185.761 388.27 176.159 385.462 167.941 380.573C194.014 402.328 227.568 415.418 264.181 415.418H168.869C158.337 415.418 148.496 412.457 140.133 407.323C173.302 436.279 216.694 453.82 264.183 453.82H130.469C119.784 453.82 109.811 450.773 101.371 445.501C144.458 484.413 201.553 508.105 264.182 508.105Z" fill="white"/>
<path fill-rule="evenodd" clip-rule="evenodd" d="M507.182 265.105V77.1055C507.182 46.7297 482.557 22.1055 452.182 22.1055H264.182C326.811 22.1055 383.907 45.7991 426.994 84.7114C418.554 79.4395 408.581 76.3926 397.896 76.3926H264.183C311.676 76.3926 355.072 93.937 388.242 122.898C379.876 117.759 370.03 114.795 359.492 114.795H264.181C300.787 114.795 334.337 127.88 360.408 149.629C352.192 144.746 342.596 141.941 332.346 141.941H264.182C292.977 141.941 319.464 151.823 340.437 168.38C332.395 163.775 323.078 161.143 313.146 161.143H264.182C287.253 161.143 308.569 168.657 325.815 181.373C318.015 177.13 309.074 174.719 299.569 174.719H264.182C282.985 174.719 300.448 180.46 314.911 190.286C307.425 186.47 298.948 184.318 289.969 184.318H264.183C279.717 184.318 294.228 188.703 306.544 196.302C299.453 192.97 291.534 191.107 283.18 191.107H264.181C277.116 191.107 289.277 194.427 299.857 200.26C293.258 197.458 286 195.908 278.379 195.908H264.182C275.009 195.908 285.255 198.395 294.38 202.828C288.347 200.553 281.809 199.309 274.98 199.309H264.182C273.166 199.309 281.729 201.109 289.53 204.369C284.191 202.641 278.495 201.707 272.58 201.707H264.182C271.604 201.707 278.729 202.982 285.348 205.326C280.739 204.073 275.889 203.404 270.882 203.404H264.181C298.258 203.404 325.882 231.029 325.882 265.105C325.882 299.182 298.258 326.806 264.181 326.806H270.882C275.89 326.806 280.741 326.137 285.351 324.883C278.731 327.228 271.605 328.504 264.182 328.504H272.58C278.5 328.504 284.202 327.568 289.546 325.837C281.74 329.101 273.172 330.904 264.182 330.904H274.98C281.805 330.904 288.341 329.66 294.372 327.387C285.248 331.818 275.005 334.303 264.182 334.303H278.379C286.005 334.303 293.268 332.751 299.871 329.946C289.287 335.783 277.122 339.105 264.181 339.105H283.18C291.523 339.105 299.433 337.248 306.517 333.923C294.207 341.512 279.706 345.891 264.183 345.891H289.969C298.955 345.891 307.438 343.736 314.929 339.914C300.462 349.747 282.993 355.493 264.182 355.493H299.569C309.075 355.493 318.017 353.082 325.818 348.837C308.571 361.554 287.254 369.07 264.182 369.07H313.146C323.075 369.07 332.389 366.439 340.43 361.836C319.458 378.39 292.974 388.27 264.182 388.27H332.346C342.6 388.27 352.199 385.463 360.416 380.577C334.344 402.33 300.791 415.418 264.181 415.418H359.492C370.03 415.418 379.876 412.454 388.241 407.315C355.071 436.276 311.676 453.82 264.183 453.82H397.896C408.578 453.82 418.549 450.775 426.988 445.505C383.901 484.414 326.808 508.105 264.182 508.105H452.182C482.557 508.105 507.182 483.481 507.182 453.105V265.105ZM452.896 265.106V131.393C452.896 120.708 449.85 110.735 444.578 102.295C483.489 145.382 507.182 202.477 507.182 265.105C507.182 327.732 483.49 384.825 444.582 427.912C449.851 419.473 452.896 409.502 452.896 398.82V265.106ZM414.492 265.106V169.795C414.492 159.256 411.528 149.41 406.388 141.044C435.351 174.215 452.896 217.612 452.896 265.106C452.896 312.601 435.351 355.998 406.388 389.168C411.528 380.803 414.492 370.956 414.492 360.418V265.106ZM387.346 265.105V196.941C387.346 186.691 384.541 177.095 379.658 168.879C401.407 194.95 414.492 228.5 414.492 265.106C414.492 301.715 401.405 335.267 379.654 361.339C384.54 353.122 387.346 343.523 387.346 333.27V265.105ZM368.146 265.106V216.143C368.146 206.211 365.514 196.895 360.909 188.853C377.465 209.825 387.346 236.312 387.346 265.105C387.346 293.897 377.466 320.382 360.912 341.354C365.515 333.313 368.146 323.999 368.146 314.07V265.106ZM354.569 265.106V229.719C354.569 220.214 352.158 211.273 347.915 203.472C360.631 220.719 368.146 242.035 368.146 265.106C368.146 288.178 360.63 309.495 347.914 326.742C352.158 318.941 354.569 309.999 354.569 300.493V265.106ZM344.969 265.104V239.318C344.969 230.338 342.817 221.861 339 214.374C348.827 228.838 354.569 246.302 354.569 265.106C354.569 283.914 348.825 301.381 338.994 315.847C342.814 308.357 344.969 299.875 344.969 290.891V265.104ZM338.18 265.106V246.107C338.18 237.754 336.317 229.835 332.985 222.744C340.584 235.06 344.969 249.57 344.969 265.104C344.969 280.634 340.587 295.139 332.993 307.453C336.32 300.366 338.18 292.453 338.18 284.105V265.106ZM333.379 265.106V250.908C333.379 243.288 331.83 236.03 329.028 229.432C334.861 240.011 338.18 252.171 338.18 265.106C338.18 278.044 334.86 290.206 329.025 300.787C331.828 294.187 333.379 286.926 333.379 279.303V265.106ZM329.98 265.106V254.309C329.98 247.481 328.736 240.945 326.462 234.913C330.894 244.037 333.379 254.281 333.379 265.106C333.379 275.929 330.894 286.172 326.464 295.296C328.736 289.265 329.98 282.729 329.98 275.904V265.106ZM327.58 265.105V256.707C327.58 250.789 326.645 245.089 324.915 239.747C328.178 247.551 329.98 256.118 329.98 265.106C329.98 274.096 328.177 282.665 324.913 290.471C326.644 285.127 327.58 279.425 327.58 273.504V265.105ZM327.58 265.105C327.58 257.682 326.304 250.556 323.959 243.936C325.213 248.546 325.882 253.397 325.882 258.404V265.105V271.806C325.882 276.814 325.213 281.665 323.959 286.275C326.304 279.655 327.58 272.529 327.58 265.105Z" fill="white"/>
</svg>
